<mxfile host="65bd71144e">
    <diagram id="bRerLfwazql1sbKYpwky" name="Page-1">
        <mxGraphModel dx="2547" dy="612" grid="0" gridSize="10" guides="1" tooltips="1" connect="1" arrows="1" fold="1" page="1" pageScale="1" pageWidth="850" pageHeight="1100" math="0" shadow="0">
            <root>
                <mxCell id="0"/>
                <mxCell id="1" parent="0"/>
                <mxCell id="134" value="" style="shape=image;verticalLabelPosition=bottom;labelBackgroundColor=#ffffff;verticalAlign=top;aspect=fixed;imageAspect=0;image=data:image/png,iVBORw0KGgoAAAANSUhEUgAAAo8AAAISCAIAAAAiCrKxAAAgAElEQVR4Aex9eVwUx9b2EKMxyfW99+bNNdEgzMIugoIIuIGIC7hhUALigqi4IolLjLigRoxCNAIajWJCRFRCBDdUxChqVIxo1KhAXBBBRFQ22Zfp73dv36/eTvdMT68z3T3FH1p96tSpc55anu7p6irZkiVLEPgHEYAIQAQgAhABiICAEZBBthZw60DXIAIQAYgARAAi8G8EIFvDfgARgAhABCACEAGhIwDZWugtBP2DCEAEIAIQAYgAZGvYByACEAGIAERABwIyzJ8OVZjNDwKQrfnBFVqFCEAEIAKSQwClbMmFJY6AIFuLo52glxABiABEwOAIQLY2YBNAtjYg+LBqiABEACIgJgQgWxuwtSBbGxB8WDVEACIAERATApCtDdhakK0NCD6sGiIAEYAIiAkByNYGbC3I1gYEH1YNEYAIQATEgQDK09h/xeG3hLyEbC2hxoShQAQgAhABiIBEEYBsLdGGhWFBBCACEAGIgIQQgGwtocaEoUAEIAIQAYiARBGAbC3RhoVhQQQgAhABiICEEIBsLaHGhKFABCACEAGIgEQRgGwt0YaFYUEEIAIQAYiAhBCAbC2hxoShQAQgAhABiIBEEYBsLdGGhWFBBCACEAGIgIQQgGwtocaEoRg9Al26dMHuXwHTEAGIgNAQ6NKlC7OJCrI1M9xgKYiA4BBQq9UfffSR4NyCDkEEIAIYBLp37465opGEbE0DLKgKERAyArW1tVZWVkL2EPoGEYAIQLaGfQAiYOwIlJWVOTs7GzsKMH6IgLARgGwt7PaB3kEE+EegsLDQ09OT/3pgDRABiABzBCBbM8cOloQISAOBvLy8MWPGSCMWyUQB1/0JbZEXRX8YrwXT2XUhW+uECCpABCSOwLlz54KCgiQepNjCMzMza2lpEZvX0F+EMafqxI6xZbjKTCe2UAEiIA4Ejh07FhYWJg5fjcZLR0fHiooKowlXOoEy5lSdEDC2DNlaJ7ZQASIgDgT279+/ePFicfhqNF56enoWFhYaTbjSCZQxp+qEgLFlyNY6sYUKEAFxIPDdd9+tWbNGHL4ajZfjx4/Pzc01mnANH6gz5g/1BiOg8cUEY04lh4DNpgiQrcmxhbkQAX4RIE4lRAlFD77+zx9FZaimHwRCQ0NPnjyJ1lVXV6efSiVfC3alGC5YdPggCAISQIEoAVnEBE9s3dbW1qNHD2J1VCSQramgBHUgAnwhAGYQkAA1ESUgS2NizZo13333ncYsKNQnAhcuXAAryxYvXrx//34EQa5cuTJ//nxO3EA7hsbuoVHISaUCNIJyNs4xgABIAAWiBGQREzyxdWtrq5mZGbE6KhLI1lRQgjoQAb4QADMISICaiBKQpTEBiEFjLhTqDYHTp08rFIrExMSWlpb169cnJCSsWbPmzTffPHr0KCc+gI4BEqhZ9NJ4dsghYWv2yPDE1s3NzXK5nFk3gGzNDDdYysAIkPwUZmDPaFYPZljcJIubbqhYDQsLO3bsGBVNIetIo2UnTJggk8kUCkVAQICZmZlMJjMzM2tra9OJPJXwQd8ACfSHX40//+qsUbwKJGytMSgsXBoVsEKe2LqpqUmhUGArop6GbE0dK6gpOAQ0DlfBeUnqkMYZRKOQ1My/M4OCgs6dO6dTTRQKYm/ZJ0+evPvuu1jqXbduHXXkycNHuweuk6B3ezgh9RrZaGLDZGOHblmNKJEgQJJFrJontm5oaFCpVMTqqEggW1NBCeoIFAGNw1WgvmpxiziDECVaiuLFY8aMycvLw0vFeS2Blv3qq68AjXXs2LGsrIx6U5CHT+wh4IcZYhb1SllqkvvM0rjG4hprJCKASohyjTaBkCe2rq+vt7CwALXQSkC2pgUXVBYWAhqHq7Bc1OUNcRLBTi5gFtZl5t/5Uvq0VwIt29zcbG1tjQbi7+9PpQWBDnn4OvsMrW4DKmWZIPeZ3DjJ/qwadwBF68L+S26fQS5PbP369WvGB+VBtmbQjrCIUBBgM0EIJQbu/HB2dqb1AMddzdxbkkbLnj59Gg0kOzubFkbk4RPZGhgnyQI6PCXIfSavlIQaSbLIbbLM5anempoaGxsbZr5BtmaGGywlCATYTBCCCIBTJ6ysrGprazk1aTBjkmnZMWPGvPXWW2q1mhaUYgyfjc8k1EiSRQtSuso81VtdXW1ra0vXGVQfsjUz3GApAyOATg3Yfw3skACq/+ijj+iyggC8xruAbVM2BIC3a6DrR48evffee9QrF2/4bBqLhBpJsqijSlGztrb2p59+CgkJ8fT0NDMz+/DDD+Vyuaen55QpU/bt2/fixQuKdkjUKisre/bsSaJAkgXZmgQcmAUREDQC2MlFoVDwMbkIOn6hOkdkXCAxMTERqtfM/QLRgQRdWySUTJJFtxYS/bKysjlz5pibm8+aNSsjI6OoqKihoQFBkIaGhqKioszMzPDwcAsLCz8/v+vXr5PY0Zn16tUre3t7nWoaFSBba4QFCiECgkZAb5OLoFEQqnOAtIiJDh06GNZrYd7hkVAySRZXSMbHx8vl8m3btjU3N5PbPHz4sLOz88SJEysrK8k1teW+ePHCwcFBWy65HLI1OT4wFyIgOAT0ObkILngxOEQkaSAxIFsL+Q6PhJJJstj3hZaWltDQUB8fn+rqaurWEhISLC0tmR3WUlFR4ejoSL0urCZkaywaMA0REDQC+p9cBA2HUJ0D3ExMGIqtBX6HR0LJJFns2z80NHTevHnt7e10TV2/fl2lUjEg7PLy8j59+tCtDtWHbM0MN1gKImAABPQ/uRggSPFXSSRpINE/W4viDo+EkkmyWPaU+Ph4Hx8fBlSN1nvz5k2lUpmfn0/LjbKyMsZfw0O2pgW1OJTB1EBMSHKRizhahbWXBplcWHttjAaI4w5I9M/WorjDI6Fkkiw2fevp06dKpZLWD+DE6rKyslxdXWl9iPH06dO+ffsSTVGRQLamgpLIdMDUQEzof7IQGXZCdddQk4tQ8RC0X8RxByR6HoBiucMjoWSSLPJO8NNPP9XX12vTmTt37rZt27TlUpcHBgbu3r2bun5JSUm/fv2o62M1IVtj0ZBIGkwNxISeJwuJACqAMAw1uQggdPG5QBx3QKLPASiiOzwSSibJIu8Zhw4dMjc3T09PJ6rV1NSYm5vrXAFOLEiUlJaWKpVK6o/XT548cXV1JdqhIoFsTQUlkemAqYGY0OdkITLUBOyuAScXAaMiXNeI4w5I9DkARXSHR0LJJFnkPUCtVjs4OMhkshEjRvz5559Y5bS0tLCwMKyETdrHx+fixYsULTx+/Njd3Z2iMk4NsjUOEClcgqmBmNDnZCEFKPUYQ2xsrLbzLg04uegRAJFVVVpaqs1j4rgDEm4H4J07d7T5ILQ7vIqKCm2uIghCQskdOnRwcnLy9PScNGlSaGjomjVrYmJikpKSjhw5cu7cucLCwuLiYm2W09PTUeQ7deoUGRkJfhgPDQ09fPiwtlJ05UlJSRERERRLFRUV9e/fn6IyTg2yNQ4QKVyCqYGY4HaykAJYgonh4cOHnTt39vDw+OWXX3BOGXBywXkCLwECX3311bRp0x48eAAkIEEcd0DC7QA8c+ZMnz59jh8/DqoGCaHd4T1+/HjgwIFHjx4FHmITJGzdvXv34uLiwsLCc+fOHTlyJCkpKSYmZs2aNaGhoZMmTfL09HRycpLL5e+//75cLsfx+qZNm0xNTQH43bt3T0tLQxBk0KBBGhsOdamqqmrSpEldu3YNCAioqqrC+qkxfefOnWHDhmnMIgofPnw4cOBAopyKBLI1FZREpgN6JzHB7WQhMlwE7+6aNWvQJhs0aNCZM2eAv+STC1CjmKA1uVC0aYRqTU1NKpWqY8eOM2bMKCoqwiJAHHdAwvkA9Pf3l8lkrq6up0+fxvogwDu86OhomUzm5OR05MgRrKvkz9YkRI4zgiAIjtcjIyM7d+4MwJfJZB07duzWrZulpWVdXR2xOCqZPHly9+7dZTLZu+++S+WoU1oHdTx48GDw4MHaqiaXQ7Ymx0eUudjeiUtzPlmIEiChOt3Y2KhSqUCTDRw4ED1pkXxyoRsNrcmFrnGj0j969CjaWB07dgwLCwM/yYIWJCY4H4BFRUVvv/02WtGgQYPAyxQB3uE1NzdbWVmhruI4m4SSSbLIO1t7e/vgwYPR6jp16hQYGHj+/Hm0SLdu3UjKolSNFnz//fdJNEEWdSf//PNPDw8PUJBWArI1LbjEoYz2M/ivZBD48MMPue15JiYmb7zxhpzyH/oDoyeFvyFDhoRQ/vvss8/WUPtbu3ZtEuU/9I3mOQp/58+fL6L8V1NTQ2wFX19f0M06deo0b9680tJSINGYAKj36dMHIIrDDYsMLnZsdKj/ERER2IqGDh166dIlYd7hnTp1Cutqnz590PfHJGxHkkVsDqxkw4YNMplMLpdv3Ljx+fPn2CxLS0vwDhsrR9MMnq2pH1ldUFAwZMgQYqVUJJCtqaAkMh3seMClOb+1Fxk0wna3sbFRqVSCJvP29v71118RBCGfXOjGVF1dTXFyqampocxlRefPn6fAj/9WQd8+UiTftWvXUiP0NZ999hnl+4SQIUOGAKYkT6CvRQHF4hJdunQB7YUmcD+94nLBAMRhi0UPhw8WAVyMaBQKhQJbS8eOHd9//30+7vCwtXCY/tvf/kZCySRZJD3/xo0b/v7+mZmZGr+tGjhw4MOHD7UVp/ve+u7du97e3tqs4eT5+fleXl44IcVLyNYUgRKTGslAApOFmOIxGl/Be+uhQ4divwkhn1zowkNrcqFr3Kj0b9y40aFDB3S4WVtb7927t62tDUEQfQ7Ahw8fgl/C7ezsUlJSUB8MdYdH3gHGjBmDgtOpU6dZs2Y9fvwY1SehZJIskrrIv6WeNm2axqV5JAZJslJSUhYsWECigM1iM/ogW2ORlEhan5OFRCATQBiPHj16++23hwwZAt6uAacMOLkAH2ACh4BarXZzc5PJZHZ2dvv378duN63PAejj4yOTyRwdHdPS0rDPkQK8wzt27Bi6zmvWrFm4dXkklEyShWsR6pf79u0LDw+nrk+u6e/vj10TSq7MZo0nZGtybEWZq8/JQpQACdLpLVu25OTkaHTNgJOLRn+gEEGQXbt29erVKzU1FcuRKDJ6G4A///xz3759iUusEQTh9Q7PmfCH7RJoJlaCIEhjY6ONjQ2Rp1E1EkomycJVQf2yoqLCysqK2HDULQDNmpoaMzOz1tZWICFP3L59e8SIEeQ62nIhW2tDRqzysrIyvU0WYsVIbH4bcHIRG1R68letVufk5Gib7vU2AG/fvq0tYD3c4WlkZcDjOMfu3LmDe57GKpBQMkkW1gLdtJ+fn8a7HLp2IiMjo6KiqJe6devWyJEjqetjNSFbY9GQQnrs2LF6myykgJdIYjDU5CISeITlphAGoB7u8IhsjZ4FSZTrbB4SSibJ0mmWRCEvL8/FxYVEgUpWcXGxSqUi+XSbaOT333/39fUlyqlIIFtTQUk0Ovv37x8xYoQQJgvRQCYSRw01uYgEHmG5KZAByPcdHpGVRcTWCIJMnDgxISGBcddpbm4eOHDggQMHaFm4fv366NGjaRUBypCtARSiT1RUVCgUisePHwtkshA9oAILwCCTi8AwEIc7AhmAfN/h4dgapWoEQXByKm1G8gBNkkXFMolOZWWllZXV9evXSXRIskJCQpYuXUqioDErLy9vzJgxGrN0CiFb64RINAoBAQHbt28n/4DExMTk2bNnogkJOopBwCCTC6Z+KSdRgsH+C1iHAfcIhK35fnzEIYNFD5els+uQUDJJlk6zOhVyc3NVKtXNmzd1amIVmpubQ0JCJkyYgP0QAKtAkv7tt9/GjRtHokCSBdmaBBwxZaWnp3t4eKDLXkgmCxMTE4VCMXPmzIKCAjGFB339DwL6n1yMCnhtHKNNrg0ckgGo5w0PeL3D0waLNrk2uBAEIW4yAzDs0qULSUH2Wbm5uUqlMisri6Kp4uLigQMHLl26lAFVIwhy9epVPz8/inXh1CBb4wAR5WVlZaVSqbx//z7qPejoxESHDh2am5u///77nj17+vn5XblyRZQBG7HTep5cjAppbTSjTa4NHOK4AxI9szWCIIzv8Nzd3UeMGMGMk7QhI0x5fn6+q6trUFAQySmoCILU1tZGRkYqlUq676qxUV+5cuXjjz/GSqinIVtTx0q4mlOnTt28eTPwD0wNxASYLNRq9ZEjRwYMGDBo0CBtx9gBgzAhKAT0ObkIKnC+nSGyMioBb2QpOkAcd0ACBiBFU5yoMbvD++STT2xsbF68eMGJDwI3olarExMTFQqFj49PUlLS3bt3q6urEQSpqam5d+/evn37/P39e/ToERUVRWsFODHqy5cvUznXi1jw3684lyxZojEDCvWJAJgUQIL6a7MTJ064ublhb4HB1EBMECeLS5cujRs3zt7ePikpqaWlRZ9Rw7oYI6C3yYWxh2IsSGRrNAptcm0xEscdkBAHoDYj3MqZ3eElJiYOHDiwqamJW2eEbO3ChQuLFi0aOnSojY1Nt27drK2tvby8Fi5ceObMGepboJAE+Ouvv06cOJFEgSQLsjUJOPrO0jgpaBQCz2pqaiwsLO7duwck5KvMtE0W9+7dCw0NVSgUmzdvrq2txVqDaSEjwPfkIuTYOfdN21jTJtfmgImJCaBnXMLExERbKb7lzO7wli1bFhwczLdvxmP/woULn3zyCbN4IVszw42XUhonBY1CUP3s2bOjo6PBJZrATRDYS21sjRYsKytbunSpubn5F198UV5ejjMLLyEC0kYAN9bQS5yQFgLl5eVvvvmmhYWFoO6Aad3htbe3+/v7r1mzhlbgUFkbAufPnw8MDNSWSy6HbE2Oj15zNc4LGoWoW2fPnnV2dib+PoOlZ1yanK1Rs9XV1Zs2bZLL5WFhYYWFhXqFAFYGEZAQAhcvXkQP6Ro7diz2XZW4QmxoaHBxcdm/f7+43Bamt+fOnZs0aRIz3yBbM8ONl1IaiVmjEEGQuro6GxsbjV8K4hgae0mFrdHYmpubExMT7ezsPv7446tXr/ISMDQKEZA0AtHR0WD0LVu2TLyxlpWVWVpaXrp0SbwhCMTzs2fPMn6zANlaII34bzc0ErNGIYIgERERq1at0ug9mCCICepsjVpWq9UZGRnu7u4eHh4cngir0W0ohAhIDAFfX1/sGExOThZvgLdu3VIqlY8ePRJvCELw/MyZM1OmTGHmCWRrZrjxUgpHzOgl9l9Q66VLlxwcHLSduM7HIpeLFy+OHTu2V69eP/74I1w6DhoCJiACJAiYm5tj2bpz586i3uEgMzPT3t6+qqqKJGSYRY5Adnb21KlTyXW05UK21oaMcOWNjY12dnY6f51+/vz5e++9J5PJfv31V66CuXv3bkhIiFKp3LJly+vXr7kyC+1ABCSJQKdOnWQymUqlWrBgQUhIyHvvvffhhx8+efJEvMHGx8cPHTqUuFZGvBHp2fOsrKyQkBBmlUK2ZoabIUstW7ZM51fytbW1Tk5O6H39tm3buHX36dOnixcvNjc3j4yMfP78ObfGoTWIgDQQePjwoUwm8/PzO3z48LRp0xAEaW1tPXPmzM6dO0UdYHh4+KxZs0QdggGdP3ny5PTp05k5ANmaGW4GK3Xt2jVbW9uGhgYSD5qamry8vMBPcDNnziRRZpxVVVW1ceNGuVw+Z84csOkpY2uwIERAYgh8++23Xbp0aW1traqqsrCwkEx0bW1tvr6+MTExkolIn4GcOHFixowZzGqEbM0MN8OUam5udnR0vHDhAkn16PeRgKplMlnfvn1J9FlmNTU17dq1y9bW1t/f/9q1ayytUSyOjY5iEagGEdAzArt27fL19UUrdXBwIN+DWs++sayutra2d+/e6enpLO0YYfHjx48zfnyCbC2mDhMVFbVgwQJyj2fPni2TyTp27Ni1a9cPPvhAJpN17tyZ7/dM7e3t6enprq6uQ4YMOXHiBLmHXOWinM2VNWgHIsAtAqmpqQsXLkRtzp8//+DBg9zaN6y14uJilUqVl5dnWDdEV/uxY8fCwsKYuQ3ZmhluBih169YtKysr8rVdKSkp4eHhx44dq62tNTMzy8/P79Gjh0wmu337tn48Pn/+/OjRox0cHJKTk/m+RYBsrZ82hbUwQyA6OjouLg4te/Dgwfnz5zOzI9hS165dU6lUol40p39sjxw5MmfOHGb1QrZmhpu+S7W1tbm4uGRnZ1OsOC8vz9vbG0GQgoKCrl277t27l2JBTtT++OOPqVOnqlSqrVu3sjyyhsQfyNYk4MAsgyMQGhqamZmJulFaWurg4GBwlzh34NChQ3369CF/hOC8UlEbPHz48Ny5c5mFANmaGW76LrVx40Zabzuio6NjY2NRL2/cuLF27Vp9e4wgJSUlixYtMjc3X7lyZUVFBecOQLbmHFJokEMEPDw8CgoKgEELCwtJfqm8cePG0aNHt7W1gUhhggSB9PR0xr+yQLYmAVYoWQUFBSqVCj1vlaJPgwcPxv76bcBporKycsOGDebm5vPmzXvw4AFF/6moQbamghLUMRQCZmZm2P2Lpk2bJtXdAGfMmBEREWEonMVV76FDh3SuPdIWEWRrbcgIRd7e3j5gwABa47ympkYulwslgP/40dTUtHPnThsbm4kTJ7JfmYLyNPZfQQULnYEINDQ0KBQKLA6JiYmi3iocGwsu3dLS4uXlxfm+DrhapHGZlpYG1h7SjQiyNV3E9K2/devWyZMn06o1IyOD8Qf4tCqiq9ze3n7o0CEXF5ehQ4eeOnWKbnGoDxEQCwJ37twZOnQo1tuCgoL+/ftjJVJKV1ZW9uzZ8+TJk1IKio9YUlNTGf8OAdmajxbhzObDhw+VSuXLly9pWZw9e3ZqaiqtInpWPnfunK+vr6OjY0pKCt9Lx/UcGqwOIoAgyJEjR4gf6vTo0YN8XyNRQ/fgwQOlUol9ASfqcHhy/uDBg5999hkz45CtmeGmj1JqtdrLyystLY1uZSqV6tWrV3RL6V//9u3bU6ZMsbCwiIuLq6+v178DsEaIAE8IbN68edOmTTjj/v7+OTk5OKGULi9evGhlZfXs2TMpBcVtLPv371+8eDEzm5CtmeGmj1I7d+709/enW1NBQYGbmxvdUgbUf/Lkyaeffmpubr569eoXL14Y0BNYNUSAKwTmzZt36NAhnLVvvvnmyy+/xAkldrlv3z5XV1cJ/4TAsr1SUlJ0nvKgrQrI1tqQMbD8yZMnCoWivLycrh9xcXFRUVF0Sxlc/9WrV+vXrzc3N1+wYMHDhw8N7g90ACLABoERI0bcvHkTZyEvL2/48OE4ofQuo6KiJkyYoFarpRca+4iSk5M///xzZnYgWzPDjfdSPj4+zM6u9/X1vXz5Mu/+8VNBY2Pjt99+a21t/cknn9y4cYOfSqBViADvCFhYWBD3DGlra+vevbvkP01Wq9WTJk1avnw57yiLsIK9e/cy/jQAsrUQGzwpKWnUqFEMPGtqajI1NRX7dNDe3p6Wlta3b19vb+/Tp08zwAEWgQgYEIHW1lZTU1ONDgwfPpz9F4waLQtK2NTUNGDAgO+//15QXgnBmaSkJMb3MZCthdCCf/Hh2bNncrmc2Yk92dnZAQEBfzEn5otffvll5MiRffr0OXDggNhvQcTcDtB3egg8ePBgwIABGst8+eWX33zzjcYsiQkrKiqsra3PnTsnsbhYhvPDDz9ERkYyMwLZmhluPJYaP3787t27mVWwePHiPXv2MCsr2FK3bt0KDg62tLRMSEiAq1cE20zQMYBAVlbW1KlTwSU2kZOTw2DpKNaCiNL37t1TKpWFhYUi8plvV/fs2bNy5UpmtUC2ZoYbX6VSU1PR0ziYVdCrV6+SkhJmZQVe6vHjxxEREebm5mvWrIFLxwXeWEbu3vbt29etW6cRhIaGhh49emjMkqTwzJkztra2dHeMkCQUaFC7d+9evXo1swAhWzPDjZdSL168UCqVRUVFzKyXlJT06tWLWVmxlHr58uW6devMzc3Dw8MZAyWWYKGfIkVg0aJFKSkp2pzv378/9rQPbWqSke/atWvw4MHYLdMlExqDQHbt2sX4mx3I1gwA56tIUFBQQkICY+t79uxh/N0940oNUrCxsXHbtm1WVlZBQUG///67QXyAlUIEtCEwbty43NxcbbnLli1LTEzUlitJ+dKlS6dMmSLJ0OgGtXPnTsYnIkK2pos2X/pHjhwZNGgQm48UAwICqB+AzVcYerTb1taWmprq5OQ0fPhwowpcjxjDqpgg0LNnT5Lffo8fPz5t2jQmdkVbpr29ffz48dreDog2LCaO79ixgzEOkK2ZIM55maqqKpbLMdra2kxNTZuamjj3TfgGs7Ozhw8f7uTklJqaCpeOC7+9pO2hWq3u1q0bSYxVVVUWFhYkCpLMqq+v79u374EDByQZHfWgtm/fvn79eur6WE3I1lg0DJaePn16TEwMm+ovX77s6+vLxoLYy/7+++9BQUFWVlbbtm1rbGwUezjQf5EiUFpa6uzsTO68g4MDs080yc0KPPfp06eWlpbi3buJE3i3bdsWHR3NzBRka2a4cVkqKyurX79+LB8Ko6Ki4uLiuHRLnLaKiorCw8PNzc3XrVtH8mukOIODXosAgZycHJ17HsyfP//gwYMiCIZrF2/evMlmIS3X7hjAXnx8/FdffcWsYsjWzHDjrFRtba2lpeWdO3dYWnRzczOqhabkcL148WLNmjXm5uYRERGPHz8mV4a5EAEOEdizZ4/O7S8OHjw4f/58DisVkanjx4/36tWrurpaRD5z6OrWrVuJh7NRtA/ZmiJQfKnNnTuX8aID4NOrV69UKhW4hAkUgYaGhoSEBEtLy+Dg4Fu3bkFYIAJ6QCAyMlLnDkWlpaUODg56cEaYVWzdunXYsGHGebD9N998w7FFMJQAACAASURBVPilJ2RrQ/bnnJycPn36tLS0sHQiNTV19uzZLI1ItXhbW9uBAwf69OkzcuTIX375RaphwrgEgkBAQACVQ6wtLCyqqqoE4rP+3Zg/f75xTlmbN2/++uuvmQEO2ZoZbhyUamhosLGx4eSkqenTp2dkZHDgk6RNnD592tvbu2/fvmlpae3t7ZKOFQZnMAScnZ2prCCbNm3a8ePHDealoStua2sbOXIkY94ytPvM6//66683b97MrDxka2a4cVBq0aJFOt9vUaxGLpfX1NRQVDZytRs3bnzyySfW1tbffvstXDpu5J2Bj/C7detGZdeExMRExicn8uG2/m3W1NQ4OjoePnxY/1UbsMaYmBjGx7pAtjZMw125csXe3p6Tz6Nv3749ePBgw4Qh2lofPny4YMECc3Pz9evXv3r1SrRxQMeFhcDLly979uxJxaeCgoL+/ftT0ZSwzuPHj1Uq1fXr1yUcIy60TZs2bd26FSekeAnZmiJQXKo1NTXZ29tfuXKFE6OxsbGMP+DjxAHxGnnx4sXq1avNzc0//fTTJ0+eiDcQ6LlAEMjNzR03bhxFZ3r06AHPlLt69aqFhYVUzyIi9oSvvvoqPj6eKKcigWxNBSWOdSIjIxctWsSVUW9vb2M4354ruIh26uvr4+LiLCwspkyZcvv2baIClEAEKCKQkpJCfWj7+/tTWY9GsWrxqqWlpTk5OdXV1Yk3BOqeR0dHb9u2jbo+VhOyNRYNfaRv3LhhY2PD1T11fX29mZkZlfdk+ohNzHW0trampKQ4Ojr6+vqeO3dOzKFA3w2GwLp167Zv306lehnmj4q+tHU2bNgwZswYY1j7uX79eoo9hNjikK2JmPAoaWlp6dOnD4c31JmZmcHBwTx6bHymT506NXToUBcXl0OHDhnD9GF8LcxjxFOnTs3KyqJYQV5eHkrZFPWlrTZ9+vTPPvtM2jEiCLJu3bodO3YwCxOyNTPcGJZat27d3LlzGRbWVCw8PDw5OVlTDpSxQiAvL2/ixIk2NjY7d+7kZDEgK29gYSEhgHkqluH8GjBgwIMHD3BCbZdtbW2QrQE4LS0tnp6e3377LZBIMrF27dqdO3cyCw2yNTPcmJS6c+eOpaVlbW0tk8JaytjY2JSXl2vJhGK2CDx48GDevHnm5uYbNmyorKxkaw6WlxACGonW1NSU1hZdGo1ICCR6oVRWVtrZ2VH/cYKedWFoR0VF7dq1i5kvkK2Z4Ua7VFtbW79+/bjtiI8ePXJycqLtCixAE4GKioqVK1eam5svWrTIeBav0gTJ6NSJRPv69Wu6R2ESjRgdjn8N+P79+0qlkv25CX+1KqCr1atX7969m5lDkK2Z4Ua7VExMzPTp02kXIy2wY8eO5cuXk6rATM4QqKur27p1q0qlmjp16h9//MHSrjPmD5jCyHQcuQiKwIShECAS7c2bN0eMGEHLH6IRWsUlqXzhwgUrKyup/mS4cuVKndvIa2tWyNbakOFSXlhYqFQqOd8W2M/Pj8MFa1wGLF1bra2tycnJDg4Oo0ePPn/+PONAUWJGEASX0Hk0MuMaYUFuESAS7aFDh+bNm0exFrQ49l+KBY1Bbe/evW5ubpLcajAyMvKHH35g1oiQrZnhRqOUWq0eNGjQkSNHaJShoNrS0mJqasr+RBAKVUEVDQicOHFiyJAhrq6u6enpDJaO40gaS9saKoMi4SFAZOtNmzYx2AK6f//+8KxbYvOuWrUqICBAet+mLl++PCkpiRgvFQlkayoosdJJSEgICgpiZUJT4ZycHD8/P005UPZvBPTz1HLt2jV/f39bW9tdu3bRWjpO/NGbKIENKUwEsF0Ly9lhYWEMbsqXLVuWmJgozEgN6JVarQ4MDFyxYoUBfeCj6mXLlu3du5eZZcjWzHCjWqqoqEipVL548YJqAcp6y5cvZ/zdHuVKRK+InUz5C+b+/ftz5syRy+UbN26k+L4DPFsDr4AEJECWcBJYohKOVwLxZOjQoQyWRx0/fnzatGkCCUFQbjQ2Nrq7uzN+EhVULMCZzz//nPE3t5CtAYy8JLy9vVNTU/kw7eTk9OjRIz4sS8mmftgaRez58+eRkZHm5uaLFy9++vQpOYxESgYSkCC3YMBcfaJqwDDpVq1QKBjsUVhVVUV3JTldx8Sr//z5c2traymtzlmyZElKSgqzFoFszQw3SqV27949fvx4Sqo0lcrLy21sbGgWMkZ1/fPK69evt2zZolQqQ0JC7t69qw10jZSMCoW/0Ez/qGqDUTjy5uZmMzMzZv44ODhQORKbmXGxl7p7965Sqfzzzz/FHgjq/+LFi/fv388sFsjWzHDTXaq0tFQulz979ky3Kn2N5OTk8PBw+uWMroSheKWlpeXHH3/s1avX2LFjL168KDHcDYWqkGEsKCjw8PBg5uH8+fMPHjzIrKwxlDp9+rStra00Trb97LPPGLc1ZGu+evuoUaP4e+MSHBycmZnJl+sSsmtwXjl+/LiHh4e7u3tGRoZkFrgaHFUB9tDMzMzQ0FBmjh08eHD+/PnMyhpJqZ07d3p4eDQ3N4s93oiICMbvRiFb89L6ycnJPj4+vJhGELVabWZmVl9fz5N9aZhFGQX7rwHjunr16scff2xnZ5eYmEgy4zD4EswgQUG2JsIeFxfH+Jj50tJSBwcHok0owSKwePFiCSzHW7hwYVpaGjYu6mnI1tSxoqpZXl6uUCiePHlCtQBNvby8PG9vb5qFoLrhESgsLAwLC5PL5Zs2baquriY6FB8fT8LlQL+2tvann34KCQnx9PRUKBQffvihXC739PScMmXKvn37+PgAAVSNvfuBnA1gQRBk4cKFjJ+ZEASxsLCg+DUBtlKjSre3t48bN279+vWijnrBggWHDh1iFgJka2a4kZXy9/dnfMoKmd3/nxcdHR0bG/v/r+D/IkOgvLz8iy++MDc3X7p0aVlZGdb7zz//fNasWVgJLl1WVjZnzhxzc/NZs2ZlZGQUFRWhi5AbGhqKiooyMzPDw8MtLCz8/PyuX7+OKyuiS+I9AZCYmJgIM5BRo0bl5eUx9m3atGnHjx9nXNxICtbV1Tk7O7O5KzI4UPPnz09PT2fmBmRrZrhpLZWWlubl5cXrG8rBgwffvn1bqwcwQwwI1NbWbt68WaFQhIaG3rt3D3U5Li5OJpN99913GiOIj4+Xy+Xbtm3T+fx9+PBhZ2fniRMnivTcMMDNxESHDh00gmNwobW1NZuH48TExGXLlhk8CuE7UFpaamFhkZubK3xXNXo4d+7cw4cPa8zSKYRsrRMiGgovX75UKpUPHz6kUYamak1NjVwup1kIqgsUgZaWlqSkJHt7+3Hjxl26dOnnn3+WyWSdOnW6fPky1uOWlpbQ0FAfHx+Nv59jNbHphIQES0tLMc5rRJIGEmGydXt7e/fu3bHg000XFBT079+fbinj1P/999+VSmVRUZEYw58zZw6DDe/QSCFbc9nikydP3rp1K5cWCbYyMjI4P8uLUAkU6BuBo0ePDho0yMHBAaWl7t27Y38kDw0NnTdvHoM1aNevX1epVKIjbMDNxIQw2frx48eurq4sO02PHj0YbK7CslKRFj969KiDg0NNTY3o/A8LCzt27BgztyFbM8NNQ6njx48PGDCAwZSqwZZ20ezZs0X92kZ7ZMaeU1ZWNmDAAMBP7u7u6C/e8fHxPj4+jPvVzZs3lUplfn6+iPAFIBATwmTrM2fOTJo0iSXC/v7+Utq0iyUaOotv2bJl+PDhbW1tOjUFpTBz5kzGCxQgW3PTlNXV1SqVSg9n6ahUKmnsEsAN7lKxcuDAgffeew9HTu7u7uhZq7R+ACdCkpWV5erqyutaCmKlbCQ4HLCXwmTr7777bvXq1WxCRhDkm2+++fLLL1kaMaric//zJ66QZ8yYceLECWY+Q7Zmhhu+1MyZMzdu3IiXcn1dUFDg5ubGtVVoz5AIvHjxYsKECR06dJBj/gYNGtS/f38zMzMPD49t27ax9y8wMHD37t3s7ejHApaecWlhsvXnn3/+448/sgQnLy9v+PDhLI0YVfG2trbhw4dv2bJFRFFPnz795MmTzByGbM0Mt7+Uys7OdnFx0cNvMnFxcVFRUX+pG15IF4Gamhpzc3OdK8CpAFBaWqpUKsXyeI1jaOylMNna39//119/pdIQJDptbW0sl6qRGJdqVk1NjYODw9GjR8USYEhISFZWFjNvIVv/H27YSeH/pLpSr1+/trKyunXrli5FDvJ9fX1xq4U5MApNCBWBtLS0sLAwrrzz8fERy47l2JGISwuTrR0dHcvLy1m2VHt7+0cffcTSiBEWR08l/v3330UR+9SpU7Ozs5m5Ctkajxs6O+Cl2q8XLFign+fdpqYmU1NTPTzBa48V5ugVgdDQUMafZhIdTUpKioiIIMoNJTlx4oS2M29wDI29NDExWb9+fV1dnaHc1lhv9+7d2f8EUlNTY21trdE+FJIjkJuba2FhIYpzzKZMmXLmzBnycLTlQrbGI0OLrS9cuODo6Mh+oOKd0HSdnZ0dEBCgKQfKpInAoEGDHjx4wFVsd+7cGTZsGFfW2Nt58ODBP/7xj+XLlxM3FcHSMy79xhtvLFu2TC6XJyQk6GfcUYl0woQJjB+YgP3S0lIXFxdwCRO0EEhNTXV2dhbabRwxhODg4LNnzxLlVCSQrfEoUWfrhoYGW1vba9eu4U3wc7148eI9e/bwYxtaFSIClpaWHM4+1dXVtra2gopzyZIlMpnsvffe27hxI/ZTYxxDYy/RX8LRHVitrKx+/PFHxt+2aYQCW5dGBY1CTn63yM/PHzJkiEb7UEgFgfXr148bN47b/kClXlo6kyZNOnfuHK0iQBmyNYDivwnqbL1kyRJ9bhbYq1evkpISvLvwWjsCXbp0wU6+okt/+OGH2oNjkmNiYtK9e3fM2vP/Jvv37+9J+AsKCgoh/C1fvnwN4e+7775LIvxlZWWdI/wVFhYWYf5u374Nvlvr3r37zp07W1tbEQQhaSnse+sHDx5MmjTJ3t4+IyODCRzay1CfBFAbFRUVlpaW2u1Ryvntt9/GjRtHSRUqaUFg2rRpixcv1pIpCHFgYOD58+eZuQLZGo8bxYF69epVOzu7xsZGfHl+rktKSnr16sWPbclaFfsKW0tLSw7PRa2urraxscE1dnNzM4Y9/5ssLCwk8Oy5rKwsAiMnfffddwTuXrN8+XICy4cEBQUR7gc8+/fvD9gaHXcdO3b85z//SZGt0Vhu3bo1atQoV1fXX375BRcd40uKkwDWvru7O9jvHSunnv7ll18mT55MXR9qEhFobm728PDg9VAlYqW0JJ988smFCxdoFQHKkK0BFBru6P8v76+p5uZmBweHS5cu/VXM/Ao7PWm0smfPHoHfM2p027BCsbP1wIEDOdxz/u7duwI8aHX8+PGg85uYmIwfP/7q1atAQkxgn62xvevXX38dPHjwsGHDOHkzhdaLta8zHR0dHRMTo1ONRCEjI2Pu3LkkCjCLCgKvXr2ytbU9ffo0FWX960ycOJHxx36QrZm016pVq/hYXksyRwQEBLBfxsIkVDGXETtbc3uKYkpKyoIFCwTVnunp6Wif79ixY0hICHg2JZI0kGhjazSukydP9u7de8KECSx3WiUZidoAvHXr1uDBg7XlUpHv3bv3888/p6IJdcgR+PPPP5VK5d27d8nVDJLr7+/P+CtcyNa0m+zmzZs2NjYcLv8BHmibI9ra2kxNTZuamoAmTFBBQOxsvW/fvvDwcCqRUtHx9/dn/OkIFft0dWpqaj766KN33nknIiLiyZMn2OKAm4kJcrZGEEStVh88eNDW1nb69OnFxcVYs9TT2kYiuQWlUslmV+Dt27evX7+evAqYSxGBnJwca2vr58+fU9TXm9rHH3985coVZtVBtqaHW2trq7OzM+Ml+OSVaZsjLl++7OvrS14W5hIREDtbV1RUWFlZcbIBWU1NjZmZGbqGiwiUQSSrVq1avXr1y5cvibUTSRpIdLI1aq21tXXXrl1KpTIiIqKiooJYhTYJqAgktGkS5fPmzUtJSSHKKUo2btwYFxdHURmq6UQgKSnJ3d1db0uLdPqDKvj5+V29epWiMk4NsjUOEB2X0dHRs2fP1qHENBudIIilo6Ki4DAmwqJTIna2RhDEz8+P8Wm4WHwiIyP1s4cPtlLyNMkCOsCUxISJicn169fJLYPcxsbG2NhYuVy+evVqPZyuePLkycDAQFA73cSKFSu+//57uqWgPgkCK1asCAwM5OR+l6QWWlnjxo377bffaBUBypCtARS6E/fu3bOwsOBv2Gtjazc3Nz2c7qU7frFpSICt8/Ly2O+YUVxcrFKp+Hh3w1OPIJI0TuLt7U19s+WamprVq1fL5fLY2Fhen7QaGxtNTU0Z/4CxcOHCtLQ0niA1TrNqtTogIGDVqlXCCX/MmDF5eXnM/IFsTRW39vZ2Nzc3xoedkVeDm4xkMhnQf/XqlUqlApcwQR0BCbA1giATJ05MSEigHjVOs7m5eeDAgQcOHMDJhXxJHA5AYmJiAtK9e/fev38/RXasqKiIiIhQKpW7du2iWIQBRH5+foz3vggJCTl16hSDSmEREgQaGxvd3Nz27t1LoqPPrNGjR1P/cQjnGGRrHCBaLzdv3jx16lSt2bxlpKam8vfbO29eC8Kw2Nn6jz/+iI+Pd3V17dq1K+MR7u7uHhQUxHd7OBP+0BqxYuo+AD4mJt544w2cUC6Xx8XFkfyujq23uLh4+vTptra2Bw8e5OMH0sTERMZfWrJZLYyNEaZxCJSXl1tZWTH+yhlnjeWlr68v4wNIIFtTAv/+/ftKpbKyspKSNqdK06dP53yrJk4dFK4xMbL1/fv3d+3aFRgY2LVrV5SWOnXqdPDgQZVKdfPmTVpYNzc3h4SEDB8+3MLCIj09nVZZZsooN4OygKqBhGICx8fYS8DWJiYmFhYWI0aMmDt3bmxsLK39ofLz8ydMmNC7d2/GJw1rC6SsrIzx9q7Dhw//448/tFmGcjYI3LlzR6lU3r9/n40RTsqOHDmS8YGNkK11N4Farfbw8NDPfEf0Ri6X8/emnFidlCQiYuumpqaNGzeamZlhmQlNr1u3DkGQ3NxcpVJJ/WVtcXHxwIEDly5d2t7ejm6Et2PHDr4bVyNbM6iUCAKQdOjQ4e2335bJZP/4xz9oMTTRjWvXrg0bNmzw4MGMd6sg2kQQxMXF5c8//9SYRS50d3d//PgxuQ7MZYxAVlaWnZ2dQZ64sD6PGDHi9u3bWAn1NGRr3Vht377dUIdf3b59m+WWC7rDk66GiNgabYT8/Px169b17t0bkNPbb78N5pf8/HxXV9egoCDykwFra2sjIyOVSiX2XXVlZeXAgQNXrlzJa2trZGuckIoDIHxiokOHDgMGDJDJZAcPHlQqlUVFRVQMkuj88ssvrq6uo0aNYvzEgzO+du3aLVu24IRULu3t7dl8rk2lCiPX+fbbbz09PVtaWgyIw7Bhw+7cucPMAcjWOnB7/PixQqGg9cmmDot0smNjY6Ojo+mUgLr/h4Do2Bp1vaKiwsbGBiWq6dOn/188/9n6IzExUaFQ+Pj4JCUl3b17t7q6GkGQmpqae/fu7du3z9/fv0ePHlFRUcQV4A0NDX5+fjNmzODviHQcMYNLkMDGQpImkjSQdOjQYdGiReivzceOHXN0dKytrSUxRTErIyPD3t5+0qRJ7I8ovX79upeXF8V6sWrm5uaGJRKsM1JNf/bZZ7gxpedIvb29GW+yBtlaR2ONGDFi//79OpR4y/b29ma83J83p0RjWIxsnZ+fb21tnZCQgPKTtk8zL1y4sGjRoqFDh9rY2HTr1s3a2trLy2vhwoVnzpwhWfDc1tY2e/bsMWPGUFyTRbelcawMLkGCokHAzcREhw4dUlNTN27ciJratGnT2LFjOTkksb29/ccff7SyspozZ05ZWRlFV4lqarVaLpejd1HEXBJJt27dSHJhFicItLe3jxkzZsOGDZxYY2DEy8uL8ba4kK3JAP/+++/Hjh1LpsFnXn19vZmZGR8rV/n0WkC2RcfWZ8+eVSgU6E55H330Ud++fflAc+3ate7u7ho3ESOpDkuc2tSIrIxKnJ2dtRXRKMd+poWtVyaTmZiYFBcXY98FTJkyhcODa5ubmxMSEuRy+bJlyxj/Lh0WFpaamqoxNBKh6LorSSxCzqqrq3NycjLUp+1DhgxhvHkGZGut/aqsrEyhULC5y9ZqmlpGZmZmcHAwNV2opQEB/qY/LIVoqJiR6IcffrC2tgb33SNHjuRvZ6vdu3f37NmTwZomNHBG8fFVqKmpyd3dPTk5mcMK6urq1q9fL5fLmZ0of/To0SlTptDyp6GhAW6rQAsxNsolJSUWFhaMdwBlU7WHhwezRYj/Pvd9yZIlbOqWcNmxY8fyN11SwS08PJzbOYhKpVLS4Y+tUZS4oi61Wr1ixYr+/ftjl0ds2LChoaGBv+Y4cuSISqWiu7SKq5C5jevZs2eWlpa5ubnkZuneY6WkpHh7ezP4cau+vr5Hjx601gc8f/68d+/e5P7DXA4RuH79ukqlYnDDytKHwYMHM14bAdlaM/j79+8fMWKE5jx9SW1sbMrLy/VVmwTrEQVbNzY2fvKfP9ymmDy9WsY286VLl5RKJa29t4TJ1giC3LhxQ6VSUXkUphVCQEAAsy36R40aRevDsAcPHgwaNAjbOjDNNwKHDx92dHTU8/exbA6th2ytoUtUVFQoFAr933ZhXXn06JGTkxNWAtN0ERA+W1dUVPTv33/FihUMHuDooqFRPz8/39LS8qefftKYSxTSojpicV4laWlpzs7OOn+QoBUCuu8veD1B3f8dO3Z88cUX1PVv3LgBz9mjDhdXml9//fXIkSNp/QrCsur+/fsz/uwQsrUG8AMCArZv364hQ4+iHTt2LF++XI8VSrAqgbM1uvz7hx9+MCz0T58+dXR0jI+Pp+IGLaqjYpBbnTVr1kycOJH81oduCKdOnXJxcaH7bVVJSYm9vT316M6fP8/m/C7qFUFNHAKzZ8+eP38+TsjfJZs9cCBb49slPT3dw8ODfMDjy/Bw7efnl5OTw4NhIzIpZLbGLv82eJNUV1d7eHiQPwuiJIf91+BuEx1Qq9UTJ05cs2YNMQtI6LI1giDz5s1bvXo1sEAx0bt3b+pPUcePH581axZFy1CNQwRaW1uHDRu2detWDm2SmHJ1dX3y5AmJAkkWZOu/gFNZWSmE7WRbWlpMTU3p3s7/JRJ4gSD8sTWWtBjM/rjl30Joq6ampgkTJkybNo3kc20h+KnTh4aGBmdnZ5Lvcxi0V319vZ2dnc5VbDjfVq5cSf3wtAMHDixatAhnAV7qB4Hq6upevXodP35cD9X169ePyuoKjZ5Atv4LLFOnTt28efNfRIa4yMnJ8fPzM0TNkqqTP7ZmDJPG5d+MrXFbsL29fcGCBT4+PsR90LitiG9rJSUlKpXqxo0buIrY3GPl5uba2dnRWvqXm5tLfaXqrl27oqKicA7DS70hUFRUpFQq6R6cw8C9vn37Pn36lEFB+AXXX0A7ceKEm5sbJ/si/cUu/Yvly5fr4QwG+n6JrITQ2Frb8m9Bwbphw4Z+/fphvyUTlHsUncnNzbW0tHz27BlFfSpqq1evnjdvHhVNVKe9vd3MzOz169dUinz9nz8qmlCHJwQuX75saWnJmEopeuXs7Mx4Dw/4bP1fkGtqaiwsLO7du0cRdF7VnJycHj16xGsVxmBcUGxt8OXf1Fv8hx9+sLOzE3sPTE5Odnd3b2pqoh44uWZLS4uLi8upU6fI1bC506dPp3h2X1RU1K5du7BlYVr/CBw4cKBv3760fkGh62SfPn0Yf5cL2fq/aM+ePVsg52eUl5fb2NjQ7QRQn4iAcNhaIMu/iRBpk2RmZmr8MVmbvjDly5Yto7unGHkg+fn5KpWK+o6k6enpFM+QWLRoEfbMNHI3YC5/CKxbt278+PH8/cLq6OjI+IcryNb/bvezZ886OzsLZH1NcnJyeHg4f93ReCwLhK0FtfybeuujJ2qfOXOGehGhaba3t48dO3bTpk0cOhYXF0f9/NzXr1+bmZlRmfpnzZqln1VOHEIhVVNTpkxZunQpT9E5ODi8ePGCmXHI1khdXZ2NjY0e1hdQbKHg4ODMzEyKylCNBAEhsLUAl3+TIIbLKiwstLa2FvUzX21traOj47Fjx3ChMb5Uq9Xe3t4pKSkULYwYMYLKYvLAwMDz589TtAnVeEWgubl58ODBPL2YYHOKOWRrJCIiYtWqVbw2P3XjarXazMyM1xcn1J0Ru6Zh2VrIy7+pt+yzZ8+cnJy2bNlCvYjQNNHlvnfu3OHKsZKSEuoHfiQkJKxcuVJn1b6+vsRF7DpLQQWeEHj58qWtrS0fPyz17NmzsrKSmdvGztaXLl1ycHBobm5mBh/npfLy8ry9vTk3a5wGDcjWolj+TbFX1NbWenl5LVmyxOBbBlF0mKh2/vx5a2truoeEEu0ACfUDP4qKiqgc1zFo0CDGhz0Ar2CCQwQKCwuVSiXn645tbW0ZnH2OxmXUbN3Y2GhnZ2eQc9O09aro6OjY2FhtuVBOCwFDsbWIln9TxLO5uTkwMDA4OFi8O/bs3r3bw8ODQ/+pH/hhb2+vc0OM3r17P3/+nGJzQDX9IHDu3Dlra2vGi8I0OmljY8P4HBGjZutly5YJ7cDQwYMH3759W2MzQyFdBAzC1qJb/k0RVbVa/emnnw4bNoziB8QUzepTLSIiIiwsjKsaqR/48cUXX+jcPkGlUuk8j4Qrz6Ed6gh8//33AwYM4PA7QCsrK8YjyHjZ+tq1a7a2toIaITU1NXK5nHpPgprkCOifrbOzsxUKxdmzZ8kdE29uTExM3759GX8watjA29rahg8fTvH8EiquUjzw49dffx01ahS5Qf33VXJ/YC5AzzzAmQAAIABJREFUYPny5ZMmTeLqNZCFhQXjZUlGytbNzc2Ojo4XLlwATSKEREZGBsWvM4XgrfB90PMMGB8f37Nnz8LCQuEjw8bD5ORkGxub+/fvszFiqLJVVVV2dnbZ2dlcOUDlwI+2trYePXqQz9HdunXjyiVoh1sE1Gr1hAkTuNoXls2PKEbK1lFRUQsWLOC2Udlbmz17dmpqKns70AKKgN7YurW1NSwsbPjw4VVVVcYAflZWllKpvHbtmhiDLSwsVCgUSUlJnDhP8cCPKVOmHD16VFuNLS0t5ubm2nKh3OAINDQ0uLq67tu3j70nCoWC8e/qxsjWt27dYvPygH2DabNAa5skbUagHCCgH7Z++fKlp6fnwoUL9XmmPYjRUIlr164plcqsrCxDOcCm3tLS0lH/+SstLWVjBy1L5cCP1NRUklfmr169onUYNnufoQW6CDx79szKyurixYt0C+L05XI540+QjI6t29raXFxcOPwpDNcYjC8LCgrc3NwYF4cFiQjoga3v3r1rbW3N00YKxIgEJbl//76NjU1ycrKgvKLuTFJSklwu5+QhW+eBH9XV1XK5XNu7z8ePH7u7u1P3HGoaBIHbt28rlUqWH9qZmZkx3jTT6Nh648aNM2fONEhjk1caFxfH1asR8oqMJ5dvts7MzFQoFDk5OcYDKS7S8vLyvn37xsTE4ORiueTqIZvKgR9eXl7Xr1/XiMwff/wxfPhwjVlQKCgETp48yWZ7EwRBevTowfhHOONi64KCApVKxfjjdF77ja+v7+XLl3mtwtiM88rWsbGxDg4ODx8+NDZUcfG+fv162LBhn376qbYHR5y+AC85ecjWeeDHli1b1q5dqzH8y5cv+/v7a8yCQqEhsG3bNi8vL8Yf7n/00UeMR4oRsXV7e/uAAQOEuXV+U1OTqakp43suoXVogfjDE1s3NzdPmzZt9OjRtbW1AonUsG60tLQEBwcHBgYyfiFnWP8RBOHkIZv8wI8///zTxcVFY6SnTp0KCQnRmAWFAkQgIiJixowZdB178OBBYGBg586dQ0JCqGwdT7RvRGy9devWyZMnEyEQgiQ7O5v6wT5CcFgUPvDB1s+fPx8wYMDSpUupHKwkCpQ4cVKtVi9ZssTLy0vUdzAsH7J1Hvhha2tbVlZGBDwtLW3hwoVEOZQIE4G2trbRo0dv3LiRuntVVVVubm5//PFHe3v706dPJ02axOC7f2Nh64cPHyqVSg43CqbeTlQ0Fy9evGfPHiqaUIc6Apyz9c2bNy0tLX/88UfqPhiV5pYtW5ycnJ49eybeqFk+ZJMf+LF48eLExEQiON9///2KFSuIcigRLAKvX7/u06fPoUOHKHoYGxubkZGBVQ4ODr5y5QpWojNtFGytVqu9vLzS0tJ0wmEohV69euncSdhQvom3Xm7ZOj09XaVSXbp0SbyA6MHzAwcOWFtbi32LGDYP2SQHfpw7d87Pz4/YCnFxcbQe1IgWoET/CDx58kSlUlHcdWDUqFG4F52lpaXTpk2j5bZRsPXOnTuFvIijpKSkV69e1JvNGfOHlsII/p2kbkpimtXV1dj9SbBszXLvrS+//LJPnz5PnjyRGGJ8hHPmzBmlUsnszRwf/jCzqfMhGzvoQBWo8J///GdcXBwQgkRra6upqWljYyMqAQdar1+/fvv27UANJsSCQF5enkqlKi4u1unwyJEjiTojRowgCkkk0mfrJ0+eKBQKIe9svGfPnsWLF5M0Ei4LnREQBCEmcJrGdqlWq4cNG5aYmIiuukTZ+tatWwMHDqR4C0xErKGhISgo6OOPP66rqyPmQolGBG7cuKFSqTIzMzXmikhI8pBNHH1A4ujo+NZbb+Xn52MjRftkYGDgyZMnEQQ5derUuHHjUIXPP/987969WGWYFgsC6enpvXv31rlcg/hsXVJSQndpofTZ2sfHR+AbOAQEBNDarQVMCsSEWLo4f34ePnxYJpP169fvt99+69at26effvrmm2/6+voyq/Hp06cuLi6rVq1i/NEFs3olUOrRo0d2dnY//PCD0GKRYf6o+KbtIZs4+rASS0tLFxcX9DufV69eVVRUoCSdkpIyb968q1evvvvuu59//jnqwNy5c3EvNak4Jl4dTAvIxBsF8DwmJsbX1xf3QzfIRRMxMTFHjhzBCoODg+n+/iRxtk5KStJ5+g0WQf2n29raTE1Nae0ci04KYGoAD9lYif4DIa9Rn+PT2dlZJpO98Z8/tF66owKN5dq1axYWFgcOHCAPDeZqQ6CioqJfv34bNmzQpmBAOdoxqDtAfMgmDkPUGngVBQ78KC4u7tatm6Oj4/bt2y9fvtyjR4/3339fJpOB5+nJkyf/8ssv1J2RhibdJhBy1LNmzQoPDyfxsLKy0s3NDT0NuaysLDg4GK4J/wtcz549k8vlnGwF/Be7nF5cvnyZ7pMfCSuTZHHqNUNj+hmfx44dQytC/6X7cgiN7cCBAxYWFox/P9cGEHGKx0rARK+tuOjkdXV1Pj4+CxYsENoHbwy6Iu4hmzjWgARNgAM/6urq/v73v7/zzjvYbimTycDWZuPGjfvtt99E17gsHWbQBCxr5K94a2vr0KFDtREwrt2xlyYmJtS9kvKz9fjx43fv3k0dC4NoRkVFaVyQQuIMmBSIOiRZRGX9S/Q2Pvv16weGBN1V3Gq1etWqVS4uLk+fPuUcItBAIAGqIEpAlqgTra2t06ZNmzBhAq0fkPgOmXFXBA/ZxPYCEpBAD/yIiYmRyWT9+/d/7733QLfs0KEDWG42ZMgQ3EtuvsMXgn3GTSAE54k+VFVV2dvba1yrARqdmOjQoQPRlDaJZNk6NTXV29tbW9jCkbu5uRUUFNDyB8wFoBQqIcqBgkASehufJ06cQOui2wfq6uo+/vjjoKCghoYGPkADbQQSaC24Sz6qNqzNL774wsPDQzib/rLpiuhD9t///ncHBwccqmg79urVq6io6NKlS+fOnZswYcLf/vY3mUxmaWl59erVLl26oFVbW1uDsi4uLgL/CRC4ymGCTRNw6AaHph49eqRUKm/duoWziUaq8V/I1siLFy+USmVRUREONaFdvnr1SqVSCc0r/vzR5/h0c3OTyWQXLlygHs6TJ0/69Onz5ZdfaiyCHWwaFagI0dmcyM1ECRVretPhJPb4+HhHR0c+frFggAP7rggesom1HzhwQKFQYEGTyWSdOnVqa2s7e/bs22+/LZPJsOtprK2ta2pqiHakLWHfBALE59KlS5aWlo8ePVq3bt3w4cNHjBgRGhqK6wnYS8jWSFBQUEJCggDbEudSamrq7NmzcUIJX+pzfGZlZb311lvUwbx06ZJKpUpPTycvwjIEjaysUUjuhkFyWcaOIMhPP/1kaWlJ/NVXn0vusXMly4hwb7KxjdLc3Lxp06Z//OMf2OrQ54fjx4+/8cYb4PMtBEE++ugjob3Xx8bCeRqLCcsm4Nw39gZTUlIGDBgAVoDn5uYS4wUSY2frI0eODBo0SJ/jn3EDT58+3Ui+3AC9EyQYg0a94AcffEBR+ccff7S0tLx586ZOfdR/nWraFDQSs0ahNgsGlLOMHfX83LlzSqUSt5jg0KFD4NUD6CHEBK0lOXoDiuQh+8WLF/Pnz+/YsSMaC1j4vWLFCuyB1nK5XG/ewor4RsDHx+fevXvYWog9GUiMmq2rqqqUSqVYNj6Uy+V6/gWstrb2p59+CgkJ8fT0VCgUH374oVwu9/T0nDJlyr59+168eIHtZKJLgzFATGib6Nvb25cuXTpgwIDnz59TiRe1TEVTow6RmIkSjQWFIGQZOwjh1q1bKpUKPHwgCDJ//nzwOROx7YCE1tQGqtNDguQhG0GQgoKCMWPGyGSymTNnos68fPnS19dXqsNQD4ALtoqcnBzilu+gAxMTtLq01FaZTZ8+PSYmRrBtiXXs9u3bgwcPxkp4TZeVlc2ZM8fc3HzWrFkZGRlFRUXo00xDQ0NRUVFmZmZ4eLiFhYWfnx/4sIRXf/gwThwMQKJxVNTW1o4ePXratGnUj3pEDfLhvPBtchj748ePe/bsCT7ZcHd3B2MBNBkxobERhYMbyUM2giCpqanm5uYlJSWSH4bCaRH9exIfH3/q1ClcvcSeDCS0urSk2DorK6tfv37ke8rgcDTgZWxsbHR0tH4ciI+Pl8vl27Zt00lLhw8fdnZ2njhxYmVlpX5847AWMAaICeKoePjwoYODQ2xsLC0HUMu0ikhGmdvYX7586e7uvnbt2ra2tnfeecfExAT9SYzYdkBCbEShYUv+kL1161ZjGIZCaxR9+nPgwIFvv/0WW+O9e/dAByYmaHVp6bB1bW2tpaXlnTt3sEgJOe3t7Z2Xl8e3hy0tLaGhoT4+PrQ+nklISLC0tGS2BRjfEZHYJw4GIMGNipycHIVCofHjSG32gSmQ0KYpPTkIGSQ4ibG+vn7MmDEBAQGoWXQnTlAFMYFrRE584MMI8SHbqIYhH5CKxWZra6uHhweYOY8cOYLd+4Fll5YOW8+dO3fdunViadT6+nozMzM9LIULDQ2dN28egxWn169fV6lUoNuJAljiYAAS7ES/a9cua2vru3fviiIo4KTE1hw0NzdnZWXNnj373XffRZvpgw8+aGlpAU1GTGAbEcAizATuIduohqEwW0RvXpWWloaGho4YMWL48OHr1q2rqakh9mQgodWlJcLWOTk5ffr0QffQ11ursKkoMzMzODiYjQUqZePj4318fBhQNWr85s2bSqWS+L0NlaoNogPGADGBjoq2traFCxd6enq+fPnSIB4yq1Riaw4aGxu//vprsE8ItrEOHTqEvcSlaU1tzKDmtlRSUlLv3r3j4uKMahhyi6EErOG6MfaSVpeWAls3NDTY2NjcuHFDRO0aHh7O98lgT58+VSqVtH4AJwKYlZXl6uqqh98AiFUzkGCHAS7doUOHqqqq4cOHh4WFtba2MjBuqCJSXXPw8uXL/fv3h4SEdO/eHTTWkCFDQJqYoDW1Gaq9cPUWFxcb2zDEIQAviT0ZSGh1aSmw9aJFiyIjI8XVJ2xsbPg+cnvu3Lnbtm1jD0tgYCBYu8veGq8WwBggJt54442ePXtq23afV68YGzeel51//PFHTEyMg4PDG2+8QWw7IKE1tTGGnduCRjgMuQVQAtZAByYmaHVp0bP1lStX7O3tBXVggM7u9ejRIycnJ51qbBRqamrMzc11rgCnUkVpaalSqRTF4zVxMACJiYkJrUPEqSDDt44RvuzMzs4GTUZM0Jra+G4d1H59fX1ycrK2X2uMcxjqB3lB1ZKdnV1cXKzNJWJPBhJaXVrcbN3U1GRvb3/lyhVtMAlTvmPHjuXLl/PqW1paWlhYGFdV+Pj4XLx4kStrLO3Ex8dr23QMjAFigtaoYOkhJ8WNbc0BAI3YdkAizEZcvXq1SqVKSkoifjsq4WEI2gsmEAQpKyv73//937CwsMePHxMBAR2YmKDVpcXN1pGRkYsWLSKiI3CJn59fTk4Or06GhoYePnyYqyqSkpIiIiK4ssbSzr179zp16jRx4kTc9n4IghAHA5DQGhUsPWRf3AjXHADQQJMRE8JsxIaGBnNzc5lMZmVllZKSgl3UKeFhCNoLJlAEtmzZgp7dEhYWhjtQitiTgYRWlxYxW9+4ccPGxgZsLyyWTtPS0mJqasr38vVBgwY9ePBAGyZVVVWTJk3q2rVrQEBAVVWVNjUgv3PnzrBhw8ClwROfffaZTCbr0KHD5MmT79+/D/wBY4CYoDUqgEFDJYz5ZSex7YBEsI34888/Ayft7OxSU1PRN0fkw5Bu7xLaMKTrv7T1W1tb7e3t0W7QsWPHWbNmAc4GfYOYoNWlxcrWLS0tffr04fsJlY/ulZOT4+fnx4dlrE1LS8u6ujqsBJuePHkyuhD33Xff9ff3x2ZpTFdXV9va2mrMMoiwurq6a9euaNd/8803Z8yYgf4ARRwMQEJrVBgkKFCp5F92tre3NzY2gnhxCdBkYk+888475MMQF7jOy4KCArFjYoT+a/xSEeBAa14SK1uvW7du7ty5Ovu3ABWWL1++Y8cOvh3r1q0bSRXYb2bef/99Ek2QZWJiAnqYMBNvvfUWiWO0RgWImqdEdXX1F198ofEVF4IgxvCy89NPP92yZYtGzhZLI2L7RklJyd/+9jfguZWVVVJSUmtrK/kwxFqgmO7evTtFTaimfwSWLVsG+gD6eM3tU4Qo2frOnTuWlpa1tbX6bw/2NTo5OT169Ii9HXILlpaW9fX12nQYPFvb2Nhos6Z/eUNDg0KhAAPD1tZ23759bW1tQEJMCIqtEQTZsWNHx44dZ86c+fDhQxyAxvCy8+nTp126dPnggw82b96Me5lFbDsgEVojgobz9/dHnQRdEc0iH4agOMVEdXW1oIYhRbeNRC0/P79Tp04ymQwd1+BncA7X04iPrdva2vr165eVlSXGTlBeXq6f8TZw4EAiDQDE6L63vnv3rre3Nyhu8ERkZCQ6OTo6OqalpYGvy8C0TkwIbaJvb293cXFBx3ZISAj27buRvOzcvHkz2kwffPDB119/DW4uiW0HJEJrRHQgnDx5UiaT9erVKzU1FbvEDEEQ8mFIdxwJbRjS9V/a+sOGDSPyNBoy6MDEBK0uLT62jomJmT59ukgbPjk5OTw8XA/OT5s27fjx41xVlJKSsmDBAq6ssbSDrgnv168f9oBk1CZxMAAJrVHB0kOKxa9duwY2A3nzzTenTJlSUFCAIAi3LzuFtuYAgINdlSOTybp27RobG1tfXw+ajJgQYCM2NjZOmDAhPT0dxIVNSHgYYsOUWBo9ch77LxogkBDjPXz48IwZM7T9aErsyUBCq0uLjK0LCwuVSiWVZcxEQIUgCQ4OpnXuE2Of9+3bx+Ftgb+//5kzZxg7w23BlStXavtlBYwB8Sbeeecdbl92NjU1iQiNzp07k3hLa2rjttdps6bx1TtQlvAwBDFKNYFyM4gOXIIEyEIQ5PXr19hLXJqrLi0mtlar1YMGDSI+UeGgEeylWq02MzMDv/jx6mdFRYWVlRX4iZhNXTU1NWZmZtp2a2JjmfOyXI0Kzh3TaPDq1avg2bpz584RERHoZrRG8rKzoKAAfc8nk8n+9a9/oQ/WHL7k04i5noXGOQz1DDJP1eFYGVyCBPV6uZqXxMTWCQkJQUFB1DESmmZeXp4+3/76+flxcmcTGRkZFRUlNDA1+sPVqNBonFuhWq1GD7596623FixY8PTpU2DfSF52Dhs2DOXpmJgY7C2siBoRNBlJwgiHIQkaIsrSyMrOzs4MQuCqS4uGrYuKipRK5YsXLxiAJZAi0dHRsbGxenMmLy/PxcWFZXXFxcUqlYrk022W9rktztWo4NYrjdYSExM7deo0d+7ckpISnILoXnai8xr2XwRBsJfEOe7nn39+//33N27cSOxaImpEXMNpvDTCYagRB9EJcWwNLkGCekRcdWnRsLW3t3dqaip1gASoOXjw4Nu3b+vTsYkTJyYkJDCusbm5eeDAgQcOHGBsQWdB3JyOTus4oU4jQIGrUQEM8pSoq6tbsWKFtmMARPqyU9ssRpSr1eqUlBRtr/rE0ojU+4bwhyH1WIxHE9dvwSVIUIeCZLMKExMT6nbEwda7d+8eP3489agEqFlTUyOXy/XsWGVlpZWV1fXr15nVGxISsnTpUmZlaZXCDQDcJXVT0pjoRfqyU2OraRSSN6g0GhEbo1iGIdZnmCZ2XVRC/KGIFlZs9rcRAVuXlpbK5fJnz57RAkVoyhkZGQb58Cw3N1elUmk7tEobSs3NzSEhIRMmTMB9P6pNn6UcNzBwl9SNS2aiF+PLTo2tplFI3qCSaURsmKIYhliHYZonBCTO1qNGjUpKSuIJO72ZnT17tqF+yc/NzVUqldq+eiIiUFxcPHDgwKVLl+qHqsE7TuAJOsUb80QvxpedxPYiSkATkyQkydYIggh/GJI0CsziCgEps3VycrKPjw9XSBnQjkqlevXqlaEcyM/Pd3V1DQoKKi0tJfGhtrY2MjJSqVTy+q6a6IC2aV2bnGgBlUhpohfdy05iYxEl2hoOK5dSI2LjQhBE4MMQ5y285AMBybJ1eXm5QqF48uQJH6jp02ZBQYGbm5s+ayTWpVarExMTFQqFj49PUlLS3bt3q6urEQSpqam5d+/evn37/P39e/ToERUVRVymS7TGrUTbtK5Nrq12KU30onvZiWss3KW2JiPKuVqSQ7QsBImQh6EQ8JG8D5Jla39//507d0qg/eLi4oTzyfKFCxcWLVo0dOhQc3NzExMTa2trLy+vhQsXnjlzxlBboOBmdvQSJ6TSDSQ20cOXnVQaXaQ6YBja2Nh069ZNCMNQpEiKy21psnVaWpqXlxcnu3EZvDl9fX0vX75scDdwDqDbU5w+fRonh5fCQQC+7BROW0BPIALsEZAgW798+VKpVJKcIsUeNb1ZaGpqMjU1bWtr01uNVCq6ePEi+rvxgAEDqOhDHUMhAF92Ggp5WC9EgHMEJMjWkydP3rp1K+dIGcRgdnZ2QECAQaomqXTo0KHgLa9wTuwgcdiYs+DLTmNufRi7lBCQGlsfP358wIABevt8iO+usHjx4j179vBdCy3758+fB1Qtk8kGDRpEqzhUNhQCRv6yE9tpDdUEsF6IABsEJMXW1dXVKpUKPeiXDSjCKdurVy/iXtCGdW/IkCHoxAfOgDp79qxhXYK1QwQoIoB2XYrKUA0iICgEJMXWM2fO3Lhxo6DwZeNMSUlJr1692FjgvOy5c+dkMpm9vX1OTk63bt2WLFnSsWNHDw8PziuCBiECfCAA2ZoPVKFN/SAgHbbOzs52cXER2oIsNq24Z8+exYsXs7HAedkxY8Z888036MdaaNe5e/euh4dHTk4O53VBgxABzhGAbM05pNCg3hCQCFu/fv3aysrq1q1begNODxUFBARkZ2froSKKVdTV1ZWXlwNlbNcpLCwEcpiACAgWAcjWgm0a6JhOBLBTrk5lnIKATvVYsGCBcLYQwcHE7LKtrc3U1LSpqYlZcT2UYtN19OAerAIiQEQAsjUREygRCwJsplyhsPWFCxccHR2bm5vFAjoVPy9fvuzr60tF01A6bLqOoXyG9RotAihPY/81Wihg4CJFgM2UKwi2bmhosLW1vXbtmkgbQJvbUVFRcXFx2nKFIGfTdYTgP/QBIgARgAiICAE2U64g2HrJkiXLli0TEeIUXXVzcxP4p2hsug5FEKAaRAAiABGACKAIsJlyDc/WV69etbOza2xslFhzvnr1SqVSCTwoNl1H4KFB9yACEAGIgNAQYDPlGpitm5ubHRwcLl26JDRM2fuTmpo6e/Zs9nZ4tcCm6/DqGDQOEYAIQASkhwCbKdfAbL1q1aqIiAjpNQmCINOnT8/IyBB4aGy6jsBDg+5BBCACEAGhIcBmyv0vW2s8URgIeQr45s2bNjY2dXV1PNk3rFm5XF5TU2NYH3TWzqbr6DQOFSACEAGIAEQAiwCbKfcvbI0gCMrQGhPYKtmnW1tbnZ2dDbg9NbgXcXZ2RsMhShiHefv27cGDBzMurreCbLqO3pyEFUEEIAIQAWkgwGbK1R9b4zYJiY6ONuxrXeJ9CdobgJxN54iNjY2OjmZjQT9l2XQd/XgIa4EIQAQgApJBgM2U+xe2xhIVSIMES7w2bdoENj+5d++ehYUF+KGY1+0OtBkHcYEEGiDuklnU3t7eeXl5zMrqsxSbrqNPP2FdEAGIAERAAgiwmXL/wtZYLABpgQQ2l0Haz8/vu+++QxCkvb3dzc3txIkTOCMoreKEXF0SjaNxEaMjSuj6UF9fb2Zmplar6RbUvz6brqN/b2GNEAGIAERA1AiwmXL1x9ZOTk5KpbK1tXXz5s1Tp04lIk4kVKIOYwnRuDZW1ianXnVmZmZwcDB1fQNqsuk6BnQbVg0RgAhABMSIAJspVytbg4VmYBEWS2j+9a9/yWSymJgYpVJZWVlJtEYkVKIOYwnRuDZW1ianXnV4eHhycjJ1fQNqsuk6BnQbVg0RgAhABMSIAJsp979szXfYDQ0NJiYmMpnsrbfeGjNmzJr//MXGxmJPkyQSKodeEY0TWRmVYP9l5oCNjQ32VEpmRvRTik3X0Y+HsBaIAEQAIiAZBNhMuXpi64KCApQvwb9vvfVWZGQk9mNrIqFy2EK8Gsf6+ejRIycnJ6xEyOkuXbqAFoEJiABEACIAEeAVgS5dujBmBD2xdXZ2NhYCPz+/hw8fAqexWWgaZLFP8Gqc6N6OHTuWL19OlEMJRAAiABGACEAEGCPAAVvX1tb+9NNPISEhnp6eCoXiww8/lMvlnp6eU6ZM2bdv34sXLxAE2bNnD8qatra22F+/mflN8kTI5s6FmTO4Un5+fjk5OTghvIQIQAQgAhABiAAbBFixdVlZ2Zw5c8zNzWfNmpWRkVFUVNTQ0IAgSENDQ1FRUWZmZnh4uIWFhZ+f38iRIzt27Lh169bW1lY27qJlSX76J8liXy+wQHKDMmLEiLKyMqAJExABiABEACIAEWCPAHO2jo+Pl8vl27ZtA3ueaPPm8OHDvXv3HjVqlMal4NpKkchJKJkki8Qg9SzqNyjXr1+nbhZqQgQgAhABiABEgAQBJmzd0tISGhrq4+NTXV1NYhqXlZCQYGlpmZubi5MzuCShZJIsBhXhitC6QXF2dp44cSJXNyg4T+AlRAAiABGACBgVAkzYOjQ0dN68ee3t7XSRun79ukqlYk/YJJRMkkXXW6y+wW9QsM7ANEQAIgARgAgYGwK02To+Pt7Hx4cBVaPI3rx5U6lU5ufnswGahJJJstjUaPAbFDbOw7IQAYgARAAiIHYE6LH106dPlUolrR/AiQBlZWW5urqy2UabhJJJsoieUJQI4QaFoqtQDSIAEYAIQAQkiQA9tp47d+62bdvYAxEYGLh7927GdkgomSSLWXUCuUFh5jw+sxslAAAgAElEQVQsBRGACEAEIALSQIAGW9fU1Jibm+tcAU4Fl9LSUqVSyfjxmoSSSbKoOEbUEcgNCtExKIEIQAQgAhAB40GABlunpaWFhYVxBY2Pj8/FixdJrO3atau0tFSjAgklk2RpNIUgSFxc3PHjxzXmCucGRaN7UAgRgAhABCACRoIADbYODQ09fPgwV7gkJSVFRESQWLt48WLnzp0XLFhA5GwSSibJ0lbXs2fP/ud//sfd3f3MmTM4HT3foOBqh5cQAYgARAAiABFAEaDB1oMGDXrw4MH/Y+/L45o4+v+DWrW1Pn2+v5dtlcqRxAARFRQBtagpYBEebwRvpajFC6VYqsWzWKsiVEWsFlGpHF5VEY964YFW0HrggYoX4H1xKlcg2d+r3eeZbneTzV7ZbDaTP2DmM5/5fD7zntl5bya7M/qAKy8vHz169EcffRQcHFxeXq5PDchv3LjRr18/kNWZGD9+PHpsF46zSSiZpEinC1S4cuVKdGNUlUp19uxZoMnzDQrwCxMQAYgARAAiABHAIkCDrRUKBfbILKwVBEHGjh1rbW0tkUhatWoVGBiIKyVmKyoqlEolUY6VPH/+/IMPPkB5tEWLFoCzSSiZpAhrGZeur693cHAA53/079//4sWLCIKQ36DgjBjMUrlBMWgEKkAEIAIQAYiABSJAg63btWtHAhBK1SjhtWnThkQTLaqrqwPsSCvRokULEkqmZcqgslQqJblBMdhGnAKVGxRcFZiFCEAEIAIQAYgAgiA02FqhUFRXV+tDjcF3aycnJ33WULlarXZ2dgacKpfLN2/e3NDQQMLWJEUkvqqrq6VSKXDk7u6+b98+BEHIb1BIDOorYhaePmtQDhGACEAEIAIWggANtvby8sIeSo0DiO7v1gUFBb6+vjgjuGxcXBzKoHK5fMuWLeD8LhLOIynCGcdm586dizrq06fPkSNHQBH5DQpQo5ioqKgweINC0RRUgwhABCACEAGLQoAGW0+YMEHfm04MIEtPT58xYwZJxSdPnrRu3RrH06g+CSWTFOnzdePGjebNm3/++eenT5/G6ZDfoOCUDWap3KAYNAIVIAIQAYgARMACEaDB1mlpaeHh4VxhFBgYSHxjCmt8/vz52O/T2CISSiYpwloAaa1Wu3LlyvPnzwMJNsHzDQrWNUxDBCACEAGIAEQAIECDrV++fOng4MB4AzLgEkGQyspKW1tbsLKNLQJpklISSiYpApapJ3i+QaEeGNSECEAEIAIQAYtCgAZbIwgyZMgQ9PErlhhFR0cvWrSIsRESSiYpYuCO5xsUBhHCKhABiABEACJgCQjQY+uLFy+6u7uzxKWkpEQul7N5M4qEkkmKmIUtkBsUZsHDWhABiABEACIgDgTosTWCIEFBQWvXrmXc+Lq6uvbt20ulUtSC2/8+tAySUDJJES0XQFkgNyggHpiACEAEIAIQAQtEgDZbl5WVOTg4XLp0iRlYPXv2jIqKQuuiTI0gCEhQtElCySRFFI0T1VjeoNTX13t5eW3bto1oGUogAhABiABEACJABQHabI0gSF5enlwuz8/Pp+IA6NTX1/fs2fP//u//NBoNKgQkDRJAmTxBQskkReQ2SUpZ3qCEhISAGxQSL7AIIgARgAhABCAC+hBgwtYoYctkMuxGIvocoPKSkhIvL6+PP/7Yzc0NaAKSBglQRJ4goWSSInKb5KWMb1BCQkKGDx8OblDIvcBSiABEACIAEYAI6ESAIVsjCHLr1i1PT89Ro0YRT7TEeqqqqoqOjm7evPm3336LY2WQBQlsRZI0CSWTFJEYpFKUl5fH4AYlKioKUjUVeKEORAAiABGACJAgwJytEQTRarXJyclSqdTf3z8lJaWgoKCiogJ9nfrmzZtpaWmBgYE2NjaLFi2aOHGilZVVmzZtunTpAqIBJA0SoIg8QULJJEXkNqmU0rpBkclk8LdqKqhCHYgARAAiABEwiAArtgbWc3JyIiMjfXx8nJyc2rVr5+jo6O3tPXPmzOPHj6ObnJw5cwbdiLtp06bLli2rr69H66I8jV0eBzZJEq1btwYncOASrVu3JqnIvsjgDYqrq2ubNm0WLVrE5hU19nFCCxABiABEACIgJgS4YWuDiDx69AhLqzKZ7NdffzVYS8gK+m5Qvv/++1GjRgk5chgbRAAiABGACJgdAjyxtUajad68OZawJRJJ3759L1++bHaQkQdcX19vY2NTU1NDrgZLIQIQAYgARAAiQB0BntgaQZAOHTpIJJLmzZsPGzYs5a/Pvn37cnJySPYDp94MQWlOmDBh9+7dggoJBgMRgAhABCACZo0Af2zt6+srkfzpTiqVPnr0yKxRIw/+4MGDI0aMINeBpRABiABEACIAEaCOAH9sPWnSpNatW5eVlaWmpvbv3596iGanqVarbWxsqqurzS5yGDBEACIAEYAICBMB/tj6+++///rrr1EUBg0alJycLExEOIkqNDR0586dnJiCRiACEAGIAEQAIsAfW+/atevJkyco4k+fPpVKpQ8fPhRrBxw+fDgoKEisrYPtgghABCACEAGeEeCPrXFPk6Wlpfn5+fHcWt7cNTQ02NjYwFeueQMcOoIIQAQgAuJGgD+2JuI4ePDgjRs3EuXikEyePHn79u3iaAtsBUQAIgARgAiYFgFTsvWzZ89EvB5+7NixYcOGmbZ3oXeIAEQAIgAREAcCpmRrBEHS09M///xzcUCJa0VDQ4OtrW1VVRVODrMQAYgARAAiABGgi4CJ2RpBkKFDhyYlJdGN2yz0w8LC0tPTzSJUGCREACIAEYAICBkB07P18+fPpVJpSUmJkGFiFlt2dvbgwYOZ1YW1IAIQASwC2H2LsXKYhghYCAKmZ2sEQTIyMvr166fVakUGemNjo52dXWVlpcjaBZsDETAVAihnm8o79AsRMCECgmBrBEGGDRv2888/mxAII7meNm3a1q1bjWQcmoUIWBoCkK0trcdhewECQmFrdD28uLgYRCaOxKlTpwYMGCCOtsBWQARMjgBka5N3AQzAVAgIha0RBNm+fbuvr6/I1sM1Go29vX15ebmpOhj6hQiICQHI1mLqTdgWWggIiK0RBAkMDFy/fj2tBghfOTw8PCUlRfhxwgghAsJHALK18PsIRmgkBITF1i9evJBKpUVFRUZqrUnM5uTkBAQEmMQ1dAoREA0CKE9j/4qmabAhEAEqCAiLrREE2bFjh4+Pj5jWw7VarVQqLS0tpdIfUAciABGACEAEIAJEBATH1giCDB8+/KeffiLGar6SWbNmbdq0yXzjh5FDBCACEAGIgGkRECJbv3z5UiaTiWk9/PfffxfxgWOmHcHQO0QAIgARsAQEhMjWCILs3LnT29tbNOvhWq1WJpO9fv3aEoYUbCNEACIAEYAIcI6AQNkaQZDg4OB169Zx3mBTGYyMjBTrduimghT6hQhABCACloOAcNkaXQ9/8OCBODojLy/P19dXHG2BrYAIQAQgAhABnhEQLlsjCLJr167PPvtMHOvhWq1WLpe/fPmS5w6G7iACEAGIAERABAgImq0RBBkxYkRiYqIIgEYQJCoqasOGDeJoC2wFRAAiABGACPCJgNDZ+tWrVzKZ7P79+3yCYiRff/zxh7e3t5GMQ7MQAYgARAAiIGIEhM7WCILs3r1bpVKJYz1coVA8f/5cxOMJNg0iABGACEAEjIGAGbA1giAjR45MSEgwRvt5tjlnzhwxPejOM3rQHUQAIgARsFgEzIOt0fXwe/fumXs/Xbp0qW/fvubeChg/RAAiABGACPCMgHmwNYIge/bs6dOnjwjWwx0dHZ8+fcpzN0N3EAGIAEQAImDWCJgNWyMIMmrUqDVr1pg13AiCREdHC21Vv3Xr1tijjWAaIgARgAhABDhHoHXr1mz4y5zY+vXr1zKZ7O7du2wabPK6+fn5Xl5eJg8DG4C1tTU2C9MQAYgARAAiwDkCLGdac2JrBEH27t3bu3dvjUbDOY58GlQqlY8fP+bTI4kvjUbTvn17EgVYBBGACEAEIALsEbAstkYQZMyYMatXr2YPnAktLFiwQDhNqKmpkcvlJkQDuoYIQAQgApaAgMWxdWlpqbmvh1+/fr1Xr14CGZ3l5eUdO3YUSDAwDIgARAAiIFYELI6tEQTJzMz08vIy6/VwZ2fnhw8fCmFQPn/+vFu3bkKIBMYAEYAIQAREjIAlsjWCIGPHjl21apX59uvixYvj4+OFEH9xcXHPnj2FEAmMASIAEYAIiBgBC2VrdD38zp07Ztq1BQUFnp6eQgi+sLBQpVIJIRIYA0QAIgAREDECFsrWCIJkZWV9+umn5rse3rlz56KiIpMPzWvXrvn5+Zk8DBgARAAiABEQNwKWy9YIgowbN04g68kMBllMTExsbCyDitxWuXDhwqBBg7i1Ca1BBCACEAGIAA4Bi2brsrIyuVxeWFiIA8Ussrdv3+7evbvJQz1z5kxwcLDJw4ABQAQgAhABcSNg0WyNIMj+/ft79eplpuvhLi4uJj+6+/jx4+PGjRP3RQJbBxGACEAETI6ApbM1giDjx4+Pi4szeU8wCGDp0qXLly9nUJHDKgcPHpw0aRKHBqEpiABEACIAESAiANkaKS8vl8vlt2/fJqIjcMndu3dN/q7z7t27Z8yYIXCgYHgQAYgARMDcEYBs/WcPHjhwoGfPnua4Ht6tWzfTnlOSkZExe/Zsc78MYPwQAYgAREDgCEC2/m8HhYSErFy5UuC9RQxv+fLlS5cuJcp5k2zZsiU6Opo3d9ARRAAiABGwTAQgW/+33810Pfz+/fsuLi4mHLvr16//7rvvTBgAdA0RgAhABCwBAcjWf/fywYMHe/ToYXbr4d27dzfhj+6rV69esWLF3yDCFEQAIgARgAgYAQHI1v8A9YsvvhDCliP/iMlQJjY2NiYmxpCWscpXrFghnOM7jdVIaBciABGACJgaAcjW/+iBiooKuVx+69atf0iFnSkqKurcubOpYvzuu+/Wr19vKu/QL0QAIgARsBAEIFvjO/rQoUOenp6NjY34AgHnPT09CwoKTBJgdHT0li1bTOIaOoUIQAQgApaDAGRrHX0dGhpq8l1HdISlXxQfH7948WL95UYsmT17dkZGhhEdQNMI4ob5oHhgBG76JBA5iABEQEwIQLbW0ZsVFRUdOnS4efOmjjJBih4+fOjs7GyS0GbMmLF7926TuLYcpyg3I/+jbdBwIAcSog62CKYhAhAB80UAsrXuvvvtt988PDzMaD28V69e169f190YY0onTZp08OBBY3qAtv/73ZrIxJCtzWhwUFkOweq4uf131cSM2ghDNSoCkK31wjtx4sRly5bpLRZYwerVqxcsWMB/UOPGjTt+/Dj/fs3UowTzod4E7CSOrYVja6CG1YFpgSAAOgsk0MCwWWxaIGHDMISDAGRrvX1RWVnZoUMHUz29pTcsPQWPHz9WKpU6C9EpADsRUJHoNEUUBgcHnzlzhiiHEhIEUMomUcAVYfsOW6RTrlOIrWWSNOYuRWKSAEzuFPQLSKAhYbPYtMkDhgEIDQHI1mQ9cuTIETNaD/fy8srPzye2B0wBIIHq4LIkQpzNdevW5ebmosJBgwZduHABQZCysrL4+Hiz21sG1zR+shbI1iiwdBvOT3fw4wW93IgXHVaiT4efCM3Fi8Xe+UG2NjBEJ02a9MMPPxhQEkZxQkKCzi27wXQAEmi8uCyJENe+Bw8eNG/ePCwsrLy83M/PLz8/f8OGDW3atNm0aRNOE2Z1IkCXtIg9hUr0/dXpVAhCug0XQsxcxUDsRNSyTrlOIVeRiMOOBY4lyNYGhm5lZaVCobhx44YBPQEUP3361NHRkRgIdk7HlhJnBKIEq49Njx8/XiKRfPzxx3K53MnJSSKRODg4NDQ0YHU4TIvsbtoCJxp0MIig4YyHor6LS6dcp5DDC0oEpkQwluj2AmRrw4gdPXrU3d3deFRkOALKGn379r106RJOXd+Vj5PjsjgjuOytW7eaNGmCnbl4eOtaNNenaBqCGxUGs6JpOIOGEK8vVKLvr0EwLVyBQReYO2KQrSn14JdffmnagykpRYkg69atmzNnDk6ZOE2gClg5No2rri8bFBSEXjASiaRz5848/GItgusTIAYS+uAVpVwEPYj2i2gaYr7DzAK7ALI1peFaVVWlUChM8kIzpfj+p/T8+XOFQvG/3H//E5kYlZD8xVnQmb1y5YqVlRV6zezdu1enDrdCC7w+uQUQtVZVVbVz586QkBCVSiWVStu2bWtvb69SqcaNG5eWlvbq1StjOEX7DvvXGF54swmHIm9Q63NkgV0A2VrfYMDLjx071r17d+Gvh3t7e//xxx/46I2T/89//iORSHjbxsECr09u++3p06dTpkyxs7ObPHny3r17i4qKampqEASpqakpKio6ePBgeHh4hw4dhgwZQvw9hdtIzN0aHIom7EEUfOxfEwbDp2vI1jTQDgsLW7JkCY0KplDdsGFDVFQUP57PnTsnkUgOHz7Mjzs4RbLBOSEhwd7ePjExsb6+ntxOZmamm5tbUFBQWVkZuabFlpp8KJpkgcRiu1sgDYdsTaMjqqqqHBwcrl27RqMO76ovX76Uy+VarZYfz61bt+bBEfY+2uQTJQ/t5daFWq0ODQ319/evqKigbnnt2rUKhSIvL496FUvQNPlQhAskljDMdLYRsrVOWPQKjx8/7ubmJvD1cF9fX+NNsiK+qSdOxEBiZWWld0wIviA0NHTatGkMHgO8dOmSXC433lgSPHKCCxAukAiuS3gMCLI1bbCnTJkSExNDuxqPFZKSkiIjIzl3KPqbesDNxETTpk05x5MfgwkJCf7+/gyoGg0vPz9fJpPdunWLn2jZeCH2GpCY9c0WiglcIGEzNsRRF7I17X588+aNg4PD1atXadfkq8Lr169lMhm3i+GWcFMPJndiwkzZ+smTJzKZjNYCOHGQHjlyxNPTk9vhRPTCXkLsNSAx0+7DYgIXSLBoWE4ajGFigu49qOTrr7+2HOBAS7Ozs7t166ZWq4FEaAk/P7/ff/+dk6gs56aeeD0AiZlO91OnTk1MTGQ/DEaOHLlx40b2doxqAXQWMWGm3QfgspwFEtBkmEARIA5mIKE7qi2UrREEmTp16nfffSfYIbVp06ZZs2ZxEp7l3NSDy4CYoHthcII8SyOVlZV2dnYGnwCn4uXx48ecr9ZQ8UtLh9hrQGKO3QfablELJKDVMIEiAMYwMUF3VFsuW79588bR0VHnmVdCGGelpaVSqZT96qVF3dQTrwcgoXth8DYGTp8+re8Nul27dn355ZdcReLv7y/wo1FBZxETgu0+Kr1jUQskVACxKB3iYAYSuqPactkaQZATJ04IeT08ICAA9KtEwuRQYUu7qcfChUvTvTB4m1DUanXHjh0//fTT48eP45yGhoZmZmbihIyzKSkpXK3WMI4BPZh19uzZxcXFRCO4LsNmBdt9xFbgJJa2QIJrPsxihzEuTXdUWzRbIwgyffr0xYsXC3NIpaSkhIeHIwiC9jGDIC3tph53MWCzdC8MBmgzrnL8+HE01L59+54+fRrY6d27971790CWZeLGjRv9+vVjaYST6qtWrWrevPm0adOePHmCNYjtL1xayN2HbQIxbWkLJEQERC+pr6//5ptv9D22jBvJ2CzdUW3pbI2uh1+5ckWAQ6q8vNze3l6j0aAdTDdCC7ypx14JuDTdC4Mu2iz1AwMDQcC+vr7oA4YKheLt27csLYPqFRUVSqUSZE2YaGho6Nixo0QiadmyZWRk5MuXL9FgAALEhJC77/r164sWLXrx4oVOSEW5QKKzpZYsPHz4sEQiGTp0KPGnVeJgBhK6o9rS2RpBkJMnT3bt2lWYz4cPGDDg1KlTaO/SvRjEelNP8nUTXAbiSLRt25Zup5PrW1lZffLJJ/b//Dg6OqoIn8DAwBDCZ+HChYv/+YmNjU0hfA4dOnTyn5+cnJyif35SU1NBH73//vvR0dFlZWVAQkzQndfIceC8dMqUKS1btpw8efLNmzdxxsW6QIJrJswOGzYMHbdDhgzBfv0jDmYgoTuqIVv/OcxmzJixaNEiAQ64rVu3Tps2De1duuGJ9aZ+zZo1Q4cO1XmcGrgMiAm6FwZdtFnqz5s3D8TcsmXL8PDwx48fKxSK6upqlpZB9YqKCicnJ5BFE2VlZf+k0T9zOTk5/2Tbk4cOHSKQckpsbOw/uXvxwoULCRQfEhgYSLgZUDk6Or7zzjugyRKJBHfaOrZIIpEIvPuqqqpsbW3RmP/zn/9kZ2cDnMW6QAIaCBMoAiUlJa1atQLjdvDgwZcvXwa/YwI5NkF3VEO2/hPqt2/fOjk5oeAKavChq9loB9MNjPymvry8fPTo0R999FFwcHB5eblB48L51bOhocHZ2blJkyYjR468ffs2NnLslYBL070wsGaNnb59+3aLFi0kEsl777331VdfPXv2DPXo5eV1//59rrwXFBT4+vpyZY2lnd27d4MOatmy5YwZMx4+fAgkxISQuw+F4siRI+D8WYlE0rVr17S0NLVa3a5dO5ZYYavX1dURwYESwSLw7rvvksRGd1RDtv7vtXDq1ClXV1fiu61YrLGXDT9prHc0Td0v+U392LFjra2tJRJJq1atAgMDDZoVzq+eCIKAx7KaNWs2YcIEQGlEuICE7oVhEBAOFXx8fN5///1vvvkG99vnhAkTDhw4wJWj9PT0GTNmcGWNjZ03b97Y2NigYy8yMhLcnYDOIib46b7S0lKw0pCbmwsWGH755Rd0aWHjxo1gOSEqKgosJAwZMkSlUr333nvYyFu2bPnvf/+bhwUSNn0B63KFwN27d9F7bolE8s4770ycOPHBgwfwuzVX8OLthIeHL1iwAC/9K49ehDqLjC1MT08PCwtj4IX8ph6larRdbdq0MWi/rq6uadOm//zF014mkxEXOQMCAsAsBhKRkZFgmgOJpKQk3Prq1q1bwRQJEhcuXABzKEgMGjQIzIzvvPNOWFjYo0ePgISY4Ge6NwgjUeHAgQPR0dGvX78mFqWlpaEvBRCLGEgCAwOJL4kxsMO+SmRk5AcffBAdHf3q1SusNWKvAQnoPo1GA8bArVu3wCDZt28fGEsrV64EY2zy5MlgEIKx2qtXLzCS2/z1AdlevXoBNVBx8uTJwODKlSuBo3379oEAfv75ZxCtUqnMyspCmybiBRJs38E0+sLtO++8ExoaCr4/QLY21sBA18MvXbpEdIBeh0Q5DxL0JzEGh4aR39Qz+G6N+9WzqqoKzJsgceHCBTB/gcTWrVvBBIcmkpKSwPQHEpGRkWB+BImAgAAwe4KETCZr3bo1mBwlEkmzZs24XXTioWdRF42Njfp8vXz50sHBgf0OOQiCVFZW2traMhhF+mJjLH/06NEPP/yg88cXbIcS04BQO3bsCEbCkCFDwFCJiopCxxK27i+//ALGYW5uLhiopaWljJtArKjRaDp37iyRSD7++OMNGzZgcRbrAgkRBEuWZGZmNmvW7IsvvsDyNAoIdjTi0uAelCJ0cCX8H0CdPn3axcVF33r4P1R5zAwbNuzYsWN0HZLf1NP93VpQv3qeO3cOPJTUqVOnbdu2oUdU4S4GbJbuhUEXbSPpDxkyZN++feyNR0dHC/M5SmzTsP2FSzPoPtQC1r7x0ps3b37vvfcWLFjw5s0bnJfU1FRRLpDgmmnJWbVa/d133+l7VwU3krFZuqMasjV+mM2cOXP+/Pk4KZ9XPs41giDbt2+fPHkyUU4uEetNfUNDg4uLi0Qi6dat2969e7EgYK8EXJruhYE1a8L0xYsX3d3dWQZQUlIil8s5fHWbZTz6quO6DJtl0H1odX2+OJTX19cvXLgQt9MLgiB37tyZNWtWt27dxLdAwiF6ojeFHca4NN1RDdkaP1qqq6uVSuXFixexBbxd+VinIP327VsbGxvs8hooIkmI9VfP+Pj4Xr16HTp0iNh23MWAzdK9MIjGTSUJCgpau3YtY+/19fVeXl7btm1jbIG3itj+wqUZdB9qgbfggSOtVnvw4MGAgABnZ+d169a9ffvWohZIAA4wgSKAG8nYLN1RDdlax6DKyckB6+FYcE11/SMIEhQUpO/sBx0N+Eskyl89tVrt+fPn9TWZ2FlA0qRJE321BC4vKytzcHDQ+TgFlchDQkKioqKoaJpcB3QWMUF3XgNP9/DZqIqKilWrVjk6Og4ZMgT705VFLZDwCbhZ+CIOZiChO6ohW+vu8YiIiHnz5ukuM4V0586doaGhdD1b2k09uAx0Jnbs2EEXQIHo5+XlyeVy4qaG5OHV19eHhIQMHz4c/VGfXNmEpVqt9saNG3PnztXZa6iQ7rzGM1sXFBRMmzbN1tY2KipK54EllrNAYsKBJATXlZWVs2bN8vPz8/X1jY6OLi8v53BUQ7bW3cXoevgff/yhu5h3aXV1tY2NDd3tUS3tpp7kwmjSpEnXrl3j4+N57zpuHObl5clksiNHjlA0V1JS4uXlFRUVJUCqLi8vP3369Jo1ayZNmuTm5oY+zN+mTRuS7qPF1kQ7FEGjq9bY2Lh3714fHx9XV9fk5OTa2lp9FixngUQfApYgf/PmjUqlysnJQRt7+PBhdF8B4oBEJbRG9Z83oF9//bUl4MigjWfOnOnSpUtdXR2DusaoMmLEiIMHD9K1bFE39fquCnTryqqqKl9f34iICAESGJVuvXXrlqen56hRox4/fkyiX1VVFR0dLZPJBPhb9bVr1/r06UPsJisrq4KCAqIcSOjOayT4cFL0+vXr2NhYuVweFBRE8dTwzZs3f/jhh2JdIOEEVXM3MnfuXNzvlSdOnABjmJigO6ohW5ONkK+++io6OppMg8ey3bt3T5gwga5DQd3UuxE+CIJgZWjriBKKrSZeD0CCXhhqtXrcuHHDhw8n+RpE0ZdJ1LRabXJyslQq9ff3T0lJKRsKfcgAACAASURBVCgoqKioQF+nvnnzZlpaWmBgoI2NzaJFi4zxBDi2X9A0g+7TarWHDh0aPHhws2bNQO+MGzcOrF0DITZBd14zXu9cuXJl4sSJdnZ28+fPJz4HrtPv5cuXx44d27x588TERNEskOhsqYUL+/fvT0QAO4xxabqjGrI1Ed6/JTU1NUql8sKFC3+LTJeqqamxsbEhvgtuMCKh/eoJJnps5EQhUYLV15nGXQzYLPbCiI6O7t27d1lZmU4jOoVYUzoVeBbm5ORERkb6+Pg4OTm1a9fO0dHR29t75syZx48fp/vugL7I9TVZZ79QF6Lu1Gr1pEmTUMJu2rRpYWGhwNlarVbv3LnTy8vL3d09NTWVymVYV1eXmprao0cPFMlPP/0UQRARLJDoGzDmKEfHLfavzhtQ0DSd4xyUQrYGUJgmcfbs2c6dOwtkPXz06NH79+9nAISgfvXUOeKJQqLEYMOxBINLY9kaQZD169d36tRJ5wNBJF5QmyQK4isiNllnv1AXIghSVFTk7u4eERHRtWtXiUQyduxYFDdcl2GzuO7jE+fnz58vWbJEKpWOHTuW5H0EbEjFxcVz5sz58MMPsU3YunUrqoMukNjb29vZ2W3ZsgW7QJKZmZmammrUBRJsnDCNIkBx9KJqbm5u+nCbNWvW6dOnsaXoudfYYYBN0x3V8Ls1Flvd6cjIyLlz5+ou41eamZmJrhkycCucm3pa1watlmKvBFyaeGHs27dPLpdjT6I16Au1aVBNTArEJrPsvszMTHt7+8zMTARBBg4c2LRpU3CQGq7LsFli9/EA8vnz58eOHSuVSpcsWfL8+XMqHhsaGn766ad27dphg0fTjx49wlpYunSptbU1boHk3//+9/jx4zlcIMF6hGl9CFAZ0ihJ69QEZp88edK1a1fwKGhOTo5KpSKOBCChO6ohWwOo9SZqamo6duwohPXwurq69u3bM/6ib9pfPQG+Okc8UUiUAAv6EuAyICZ0XhjoksPRo0f1GcTJUbM4obizxCbr7BecEJdFIVKr1REREe7u7kVFRagkLCwMfLEWzkp4fX19amqqu7u7l5fXzp076b6IgTattLT01KlT48ePR4/RVCgU2HFy9uzZZs2a2dvbY4UIgoSHh2/fvh0nhFljI6BzuOKEBtm6pqZGpVItXbo0Ojra19fXz89v1qxZlZWVxLkISHROSiSNhWxNAs7fRefOnevUqRNjmvzbEOvUuHHj0O8lbCzx8KsnSXi4ywDVJAqJEhKbaBH2gGFwSaAJKysrndXv3r3r5OT0yy+/6CzFCVFTOKG4s8Qm6+wXrBCbBuCA1W8s+S1duhR8sRYCWz958mT+/Pl2dnYTJ06ktegCmolNnD17VqFQoN+usDsH37p16//9v/8nkUhatGiBe8hg06ZNc+bMwRqBaR4Q0DlisUKw+o0VYgNTq9UBAQELFy7ECtE0biLCZiFbE+HiRjJ79mwhXEj79+8fPXo0N00ykRXciEez5H/pRvr06VMrK6v169dTqfjixQsPD4/vv//eoDKRugxWMXcFYpPpdh+CINjVbywguOVlBjdbWGts0mfOnAkKCpLL5bGxsTpPL6Vr/P79+zKZ7OrVqxs3bpRIJBkZGaiFp0+f2tnZgSkbd09w+fJlPz8/ur6gPksEcEMatYYVEmcnrEeNRhMcHBwREYEVgjToa2ICsjVAieNEbW1tx44dKT5mwrFvjLn6+nobG5uamhqMDCbxCERGRkokEhsbG4rLIdXV1QMGDPjyyy/1nV9JvNLwLkWX56TJxNVvQeFUW1ubnJzs6urq4+Ozd+9efb1PN+by8vJOnTqhW9m/evWqWbNmz549Q1+0c3V1xQKbnJyMNV5fX9++fXusBKZ5QABLzLhnwnUWYUPSarWhf330nWzL4T0oXAnHIm8gnZubK4T18AkTJuzevdtArBZc/OLFi1atWqFzIvXzMBobG7/88ssBAwZUV1dbMHhcNl3n6jeXDljYKi4ujoqKsrW1nTZtWkFBAQtL+KpqtdrHxwc78NATM+vr6319fdFh+f7776OJKVOm4Op37dqVfPcbnD7MmhaBiIiI4OBgkg2Xzp8/j1sN3bdv34oVKxiEDdmaHmhRUVHffPMNvTpcax88eHDEiBFcWxWPvW+++QZ8fbG2tqa1DvH99997eHi8ePFCPHCYqCX6Vr9NFM7fbo8dOzZkyBBHR8dVq1ahe8v8XcZFatKkSbgDrcvKyrRaLXovuH79+gcPHigUioiICIlE0r17d5zP0NBQZm9p4uzALA8ILFy4MCAgAPsoBtFpSEgI7nUAjUYTEBBA1DQogWxtEKJ/KNTW1jo7O+fl5f1Dym9GrVbb2NjAr4A6UX/9+jX44oJy9o8//qhTU5/wl19+cXJyunv3rj4FKCdHQJir32/fvl23bp2zs3NAQMDBgwf1rVuSN81g6YoVKwICAogr6vX19eBHmfv376NPLUVERLRo0QK30cratWtjYmIMOoIKJkcgLi5OpVIZ/DKg80EEnfuoGGwRZGuDEOEV8vLynJ2dTbt1ZWho6M6dO/GRwTyCzJs3TyKRvP/++x999BG6+cbHH39M987m6NGjMpnMtPdkZtqZwlz9fvLkiZ2d3axZs+7cuWM8YHfv3u3q6lpVVUXuYsOGDWD/hilTply8eBGrf+bMmaFDh2IlMC1ABJKSkjw8PAz2NYIgEyZMwO1Q29DQ8J///IdBoyBbMwAN+eabb0x7ZvDhw4eDgoKYhC7qOmVlZR988MHw4cMfPXrUrVu3p0+fbtq06cMPP4yNjaXb7itXrsjl8n379tGtaMn6gl39Hjhw4ObNm3FdA34ukUgkuCIG2T/++EMulz98+NBg3cDAwBMnTqBqWq0W9yt1VVWVTCYzaAQqmBCBjIwMFxeX0tJSKjGcO3cOu6kAgiB79+6Ni4ujUhenA9kaBwilbF1dXadOnXJzcylpG0GpoaHBxsbGGCc3GCFY/kympqaCM3A8PT1LSkoQBCkvL4+JiWGwFlJcXNypUyeKr4Hx10hBehLm6jcKVXp6us7VSLQU5WyWoD58+FAul1M5YLexsdHgBkeOjo60NrFnGTysTguBrKwspVKJPuRPsWJCQsLo0aMfPXpUU1Nz48aNHj16lJeXU6yLVYNsjUWDRvr8+fMdO3ZkwAE0fJCqTp48GW57RIJQ79697927R6JApaisrKx3797COYeNSsz86whz9RvF4cWLF1KpFL1v04kMe7auqqpydXWl+JpGXl6ev7+/zkiAcMSIEeDLNxDChBAQyM7OVigUdM8XQBAkLy9vzJgx77333ogRIxg/EwPZmvkYmDNnzuzZs5nXZ1fz2LFjw4YNY2dDzLW9vb1v3brFvoW1tbXDhw8fN24c+ZOf7B2ZqQXBrn6jeA4fPpx8dYQlWzc2NgYEBFB/IWfJkiUGH3tcvnx5fHy8mY4HEYedm5srk8nQ8+IYNLOsrMzZ2ZlBRVAFsjWAgnYCXQ8/d+4c7ZpcVGhoaLC1taXymAMX3szPhp+f39WrVzmJW6PRRERE+Pr6QrSxeAp59RuN89dff/X29iZ//JslW4eHh0+aNAkLC3m6T58+169fJ9c5cuQI7pdOcn1YygMC+fn5MpksPz+fsa9Xr1516dKFcfU/t+b9+uuv2dS38LoXLlzo2LGjwYf4jYRSWFhYenq6kYybu9mBAwfinrZl2aL4+PiuXbviHu9kadN8qwt59RtF9fXr1zKZ7P79++Qgs2HrtWvX+vj4UF90efPmjZ2dHXk8CIK8ePGC5Zcwgy6gAi0ECgsLZTIZyweVnj9/3rVrV1p+ccqQrXGA0M7OnTs3MjKSdjUuKmRnZw8ePJgLSyK0MWzYMJZXFxGUHTt2KBQKbre+InoRvkTgq98ogGPGjFmzZg0JmChPY/+SKBOLDh061KlTJ1qPC+3fv3/8+PFEU0SJnZ2dqb4DEIOxcElxcbFCocjOzmaJw5MnT4ib4dCyCdmaFlw6lOvq6jp37nz27FkdZUYWNTY22tnZVVZWGtmPWZofMWIE7mR4Tppx+vRpqVR67NgxTqyZnRHhr36jkGZlZXl5eZHsB8kS+atXr1L54o7zMnPmzNTUVJxQZ3bAgAEmP5JAZ2CWJnz27JlSqczKymLf8JKSkh49erCxA9maDXr/rXvhwgWlUmmSe+Fp06Zt3bqVgzaIzsS4ceOOHz9ujGYVFhZ27Nhx3bp1xjAuZJvCX/1G0auoqJDL5YyfBjLYBc+ePVMoFAxu0Dt27EjxzZ8FCxZs2LDBYCRQwagIlJaWuri4gPPTWPp68ODBp59+ysYIZGs26P1dNzo6+quvvvo7z1fq1KlTAwYM4MubOfkJDQ397bffjBRxWVmZj4/PtGnTcOcTG8mdEMyaxeo3ClRoaCiD/XAoglxTU+Pu7s7geZGHDx9Sf8hoz549YWFhFEOCasZAoKqqysPDIykpiSvjd+/e7dOnDxtrkK3ZoPd33bq6ui5dupw5c+ZvES8pjUZjb29P68czXuIyvZOwsDBO1q/0taShoWHatGk+Pj6i38jCXFa/0Z46cuSIh4cHcaduff1IS67VagMDAxcvXkyrFqq8efNm6i98FhUVeXh4MPACq3CCQE1NjUqlYrbjmL4Abt265e3tra+UihyyNRWUKOn88ccfSqWS7pbUlEyTKoWHh6ekpJCqWGLhjBkzfv31V2O3fN26dR07djTeoqux4zdo31xWv9GGVFVVKRSKGzduGGwXM4U5c+aMGTOGWd1Ro0aBjfaoWLC2tjbSPQcV75aso1arAwICFi5cyC0IN27c6NevHxubkK3ZoIevO2/evIiICLzUyPmcnBxm568ZOS4Tm4+MjNy2bRsPQRw7dkysz52Z0eo32tFTpkxZsmSJkTo9OTnZy8sLHKVFy4tWq7WxsaH1aMtnn31mvNsOWsFblLJGowkODjbGNH716lVmR28B/CFbAyg4SNTX17u4uOTk5HBgi7IJrVYrlUopbjFP2arZK86ZM4e35+/E99yZea1+o4P15MmT3bp1o/72M60hnp2d7eTk9OrVK1q1gPKlS5d8fHxAlkoiMjKS4gPkVKxBHSoIaLXa0L8+5DvqUDFF1Ll06RLLZ4wgWxNRZSW5ePEi/+vhs2bN2rRpE6u4RVd5/vz5ycnJvDVLTM+dmdfqN9rFb9++dXR0vHLlijF6PDU1VSqVstnIdvlfH1qxpaammmojB1pxikk5IiIiODjYSC/+XbhwgeX2GJCtuR9s8+fPnzlzJvd29Vv8/fffSU4Z0l9PzCUxMTHkG0Rz3nhxPHdmdqvfaD/OmjVr/vz5nPfpy5cvhw4d6ufnhzvXkq4jHx+fS5cu0ap148aNzz77jFYVqMwGgYULFwYEBBhpbQZBkNzcXJYnO0C2ZtO/uuui6+HG2JpDtz8E0Wq1Mpns9evX+hQsUL5s2bKEhAT+G26+z52Z4+o32r9nz57t0qVLfX09t929Z88emUzG/p6vpqbGxsaG7uJqY2OjtbU1ty2C1vQhEBcXp1KpaD1YoM+UPvnZs2eDgoL0lVKRQ7amghJtnUuXLjk5OfF5/nRkZCSHrwbSbrDwKsT99TFJXOb43Jk5rn6jnVtbW9uxY8cLFy5w2Nfl5eVjx47t3bv3gwcP2Js9fPjwqFGjGNjx8PAoKipiUBFWoYVAUlKSh4eHsc/sOXXqFLNhANoC2RpAwXFiwYIF4eHhHBvVby4vL8/X11d/ucWVJCQkLFu2jOdmu/3v4+zsjO539j/Bn/9xwaBFOKFJsma6+o1i9c1fHw5xO3z4cIcOHeLj47n6/XL27NmbN29mEGFYWNiePXsYVIRVqCOQkZHh4uLCw1O62dnZLI9Wg2xNvVvpadbX17u6up46dYpeNabaWq1WLpe/fPmSqQGx1Vu/fn1MTAzPrQIE7Obm5urqCvY7A3IQDyohUjhQ4CdhvqvfKD7oIXi1tbWcwPXmzZspU6a4u7vfvHmTE4OokS5dujx8+JCBwQ0bNixYsIBBRViFIgJZWVlKpZLidrAUbepTO3r06IQJE/SVUpFDtqaCEkOdy5cv87keHhUVBfcWBl2VnJxsjMeOgH2dCcDKaAI8d+bq6oolZjQNlHWa4kFovqvfKDj19fVdunRhsF+3TmxzcnIcHBxiYmLo7iZLforXs2fPOnbsqNOjQeH58+dZvvNj0IUlK2RnZysUiuLiYn5AOHToUGhoKBtfkK3ZoGe47qJFi2bMmGFYjwuNP/74g+XOdlxEIQgb5BOo8UIE35ix3Lxu3bqWLVtiTywWAluTr36bCkBaXTN//vxZs2bRqqJTuba2NjIy0sXF5fLlyzoVqAhRxIiaqamptN4QwSJfU1ND5TxsolMoMYhAbm6uTCbjcxfC/fv3f/nllwYDI1GAbE0CDgdFarW6a9euJ0+e5MAWBRMKheL58+cUFMWvsm3bNn0TqPEar+/rskKhaNGiBXrOJiByfcrGCw+1TH31m38Aqbf9ypUrjo6O7B/kvHDhQqdOnebMmcPykXJ9WI0fP37//v3U24VqAmvOzs4vXrygWx3qkyOQn58vk8ny8/PJ1bgtzczMnDp1KhubkK3ZoEepLjqtvHnzhpI2O6U5c+ZY4EmOOjH79ddfwZSnU8EYQn0E7ObmpvO5Mzc3t65duxojEn02aa1+8w+gvrBxcrVa3a1bN5Y3wWq1ev78+Uql8ty5czj7DLL6sLKzs2Nw7QNrY8eOPXLkCIN4YBV9CBQWFspkstzcXH0KRpLv3r2b5TorZGsjdc0/zC5evHj69On/EBknc+nSpb59+xrHtplZzcrKAlMeb6ET2RqVoH9dXV1bt24NztlEhYsWLeItPPLVb2IY/ANIjEGnZMmSJVOmTNFZRFF47dq1bt26hYeHc3UMj06srl+/zuyQRGAtPj5++fLlFBsF1QwiUFxcrFAosrOzDWpyrrBjxw6W249Dtua8U3QYRL8KnDhxQkcZ1yJHR8enT59ybdX87P32229gyhNO9OC5M3DOprW1Nd1drhg0h/rqN9a4AAFEEOTGjRsKhYLx27GNjY3Lly/nfMrWidWPP/7I7JQRYO3EiRMjRozAdgpMM0bg2bNnSqXSqAfpksSWkZFB/chUnXYgW+uEhXthfn6+o6MjgzUxuqFER0ebZA8vunEaW//48eNgyjO2L7r2wX5nFRUVVlZWLN/rMOid1uo31poAAWxsbPTw8GC8OHznzp2ePXuGhoZWVlZiW8omjaKE/Qus+fv75+XlgSz1BEC+rKzM0dGRekWoqQ+B0tJSFxeXjIwMfQrGlqempn7zzTdsvEC2ZoMevbrfffcdy6cMqPjLz8/38vKioiliHezUCSY+QbUX3e8sISFBIpG0aNHCeE8S0V39RlESDoC4N5VjY2OZvQaj1WoTEhLkcjmDZ76YjZy6urr27dvTPaOaiLxMJmO8kMAscvHVqqqq8vDwMO1uj1u2bImOjmaDLWRrNujRq4uuh/Pwk4lSqWR5CAG9hglSm/0e+sZuVmFhYbt27dDZWedGLlVVVTt37gwJCVGpVFKptG3btvb29iqVaty4cWlpaQZPb2S2+m3sVhPtE/kJSKysrEaOHAlegC4sLJTL5RUVFUQj5JKSkhJvb+/g4GAetqwCkZw4cSIwMBBkGSeGDh165swZxtVhxZqaGpVKFRcXZ1ookpOTWe51A9ma1x68evWqg4ODsdfDFyxYsHr1al4bJjxnFy9eHDhwoPDi+jOikpKS2NhYNzc3QEvW1tbYw3+ePn06ZcoUOzu7yZMn7927t6ioCD1voKampqio6ODBg+Hh4R06dBgyZIi+37wZr37zjxgAgZho2rTpRx99hK5eajQaLy8vBj86btq0SSqV7tixg+emzZ07l5PdimJiYtauXctz8KJxp1arAwICFi5caPIW/fzzz4sXL2YTBmRrNugxqRsTE8PycVaDXq9fv96rVy+DauJWuHr1qgBPEX3z5s28efPeffddIjOBZbqEhAR7e/vExESDbwBnZma6ubkFBQWBZ9bQPmW2+m2q8UCEAkiaNm0qkUhcXV0RBFmzZs2YMWNoBfns2bMBf3342VoSF5ubm9v9+/dxQgbZ/fv3M1v8Z+BLZFU0Gk1wcDDLJ7G5wmTdunXMHjkEAUC2BlDwlGhoaHBzczt+/LhR/Tk7O+N+8DOqOwEav3XrlmB3dquvrz979uyyZcv8/f3/9a9/oeT07rvvFhQUhIaG+vv701rsXbt2rUKhQJ9mMpfVb+yAAdxMTDRp0gQVbtmyhe6ZsDt27JBKpZs2bcL64i396tUrhULBibvHjx/z/FI+J2Gb3IhWqw3960P3rFIjRc7+nCHI1kbqGjKz165dc3BwMOqTI4sXL46PjycLQuxl9+7d6927t/BbqdVqL1++vHr1ai8vrx49ekybNo3B0U+XLl2Sy+V79+51d3ePiIjALqoLHwEiSQMJYOtmzZrJZDKVSuXv7z9x4kTyvcFLS0uDg4O9vb1LSkpM1fzt27dzuITWvn17gwstpmqpYP1GREQEBwczuJqM1KJVq1bFxsayMQ7Zmg16zOsuWbIkLCyMeX1DNQsKCjw9PQ1pibm8pKTEvBBISEjw9/dnPLnk5+d/8MEHiYmJZtepgJuJCSsrK5ywX79+165dI2nj/v375XJ5QkKCab9RTZw4kcPDLv38/NjsYU4Cl1iLFi5cGBAQIKjb1ri4OJbfoCBbm2a4NjQ0dO/eHd042kgRdO7c2ZKPsn/27Fm3bt2MhC3nZp88eSKTyWgtgBNjOHLkiKenp2lZihiVQQmOj7FZLFt37Njx0KFDJNYqKytDQ0N79ux5584dEjV+iqRSaXl5OVe+5syZY6olfa6awKeduLg4lUqFPpjJp19yX8uXL1+zZg25DnkpZGtyfIxYev36dTZbMhmMLCYmhuXCi0EXQlZ4/fp1586dhRwhNrapU6dy8rV45MiRGzduxFoWfhpLz7g0ytb/+te/1q9fD97j0tki9PTD5cuX032/Wac1lsLbt2/37NmTpRFs9e3bt4eHh2MlMK0PgaSkJA8PD6P+zqjPNbl86dKlLK9xyNbkCBu3dOnSpSzPUCOJ7/bt2927dydREHdRZWWluWwCVVlZaWdnx8kPk48fP5bJZOb19RrH0Lhshw4dyPcdq66uDg8P79atG/kKOZ+jfe3atdy+MlRYWAi3PKLSgxkZGS4uLny+VU8lKlQnJiZm/fr11PWJmpCtiZjwJ2loaHB3dz969KiRXLq4uHDyDomRwjOq2draWplMZlQXXBnftWsXhzdt/v7+QttMQ61Wkyzy4+gZl33y5AkJzufOnVMqlfPnzxfUL5SDBg3itguqq6s/+eQTEhxgEYIgWVlZSqXSJG/rUcF/0aJF4C1NKvpEHcjWREx4laBHFJB/e2Ac0NKlSy32AJ/GxkYbGxvG0PFZMTQ0NDMzkyuPKSkps2bN4soaV3YmTJjwww8/6DyOGkfP2GzTpk31BVBfXz9nzpxOnTpduHBBn46p5NbW1pyslID4d+3aFRISArIwQUQA/SmkuLiYWCQQybx58zZv3swmGMjWbNDjpu4PP/wwadIkbmz908rdu3fN6Emrf8bOQc7a2poDK8Y30bt373v37nHl58aNG/369ePKGld27t2716JFiw8//DA+Pr62thZrFkvPuLQ+tr58+bKLi0tkZCTOFNasCdOenp7cPuA5bNgw463AmRAorlzn5ubKZLLCwkKuDBrDzty5c3/55Rc2liFbs0GPm7osjxUiD6Jbt253794l1xFrqbmwtUKh0Pmlk1m/VFRUKJVKZnWNWuvbb79Fybhdu3bYndpwDI3NEtm6oaEhJibGwcEhJyfHqNGyMR4aGnrgwAE2FrB1Kyoq7OzshPD0HDYq4aTz8/NlMll+fr5wQtIZSVRUVFpams4iikLI1hSBMq5aQUGBwadpmEWwfPnypUuXMqtr7rVat26NnfoFm27bti23UFtZWbVr186e8HF3d1cRPkOHDg0hfMLDwxcTPitWrEghfNLT008SPqdPny4ifAoKCj755BPQC7a2ths3bmxoaAASYgLH1jdv3nR3d58yZYqxd9pn2R3x8fEc/gK1adOmmTNnsgxJrNULCwtlMllubq7wG/jVV19t376dTZyQrdmgx2XdZcuWTZw4kUuLf9m6f/++i4sL52ahQQ4RUCgU1dXVXBmsqKhwcnLCWWtsbCSw55+C06dPE6j2ZHp6OoGUU1asWEGg78Xh4eEEog8ZOnQo4ZZA5e7ubm9v37JlSywlN2vW7L333sNKcGnA1hqNJj4+vkOHDocPH8Y1TYDZI0eOjBs3jqvAfHx8mB2SzVUAgrVTXFysUCh4ONWQEwRmzpy5a9cuNqYgW7NBj8u66Hr4b7/9xqXRv2x179799u3bnJuFBrlCwMvLi8NH9wsKCnx9fbmKjUM7GRkZgIydnZ0zMjLQ1V0gJCZQtn7w4EHv3r3Hjh3L4X4jHLaLaOrx48dcPS/y9OlTBwcHogsoefbsmVKpZHAmm6mgmz59Osvt7SBbm6rvdPi9efNmhw4dSN510VGHgig2Nlbn8ckUqkIVPhCYMGEChz9zpqenz5gxg4+46fioqKho27atRCLp2rXr7t27sW+EE0kaSJo2bbp+/XqZTMZymqMTKTe61tbWjDeRxUawatWq+fPnYyUwjSBIaWmpi4sLepSquQASFhbG8t4CsrWw+nr58uWcn45XVFRkRrt6Cas/eIkmLS2Nw52qAgMDjX3CGwNUpk+f7unpuX//fmJdwM3EhJWV1dChQ1++fEmsJXDJp59+yskGqO7u7jdv3hR4Y3kOr6qqysPDg+W7yzzHjCDIpEmTDh48yMYvZGs26HFft7Gx0dPTk3w/ZAZePT09CwoKGFSEVbhC4OTJkz169HB2dlapVMOGDQsJCZk7d+7iAxVKewAAIABJREFUxYuXLl3q7++vUCiwXzcZO62srLS1tSXfpJOxccYV37x5Q/LjIpGkgaRJkyaMnZq2YlhY2N69e1nGcOfOHXhWJg7DmpoalUoVFxeHkws/+8UXX7B86gKyteB6+datW3K5nNv18Pj4+MWLFwuuqRYW0PPnz/v16weoCCT69+8/aNCgffv2sccjOjp60aJF7O3waQHgQEyAp8z4jIcTXwkJCd9//z1LU999950lb/VPRE+tVgcEBHC7qyvRi5Ek48ePZ3mME2RrI3UNK7OxsbFffPEFKxP/rPzw4UNnZ+d/ymDOBAhoNJq5c+eCY5slEsnIkSO1Wu3Fixfd3d1ZBlRSUiKXyzl8dZtlPBSrE0kaSMyXrbOzs0eOHEkRAX1qSqXy4cOH+kotTa7RaIKDgyMiIsy04aNHjz558iSb4CFbs0HPWHU1Gk2PHj1Y/siBC65Xr17Xr1/HCWGWTwSOHj06dOjQDh06dOrUCSUkLy+vuro6NIagoKC1a9cyjqe+vt7Ly2vbtm2MLZiqIuBmYsJ82frFixcsHxa5ePFi3759TdUpQvOr1WpD//pw8oORSVo3YsQIllv6QLY2SccZdnr79m25XM7hKyurV69esGCBYcdQg2sEysrKVq1a5eTkNGDAgAMHDmg0GldXV4lEolAoXr9+DbyVlZU5ODhcunQJSGglQkJCoqKiaFWhouxG+CAIgpWhRogSKsZRHSJJA4n5sjWCIJ988gmbBwhmz569YcMG6jCKWzMiIiI4OJiTx+xNBdTw4cN///13Nt4hW7NBz7h1V65cyeFW/o8fPxbmhpRsQATTukQiYWPHSHUvXrw4ceJEW1vbOXPmgI2jtVptq1at2rRpQ9wRNi8vTy6X091Dsb6+PiQkZPjw4caby1AyxqFEXYiriMtiOxGXNmu2VqlUjB/t1Gg0UqlUmCc/4rqPh+zChQsDAgIEdcwag1YPGTLk/PnzDCqCKpCtARSCS2g0mp49e3L4Jq6XlxddJhAcKLoCQqd4XSWmkdXW1qakpHh4ePTq1Ss9PR2sdaPRPH78uGXLlmfPntUZXF5enkwmO3LkiM5SorCkpMTLyysqKsp4VA2+TOO8Q7bGAYLLzpgxY+fOnTghxeyJEycGDhxIUVncanFxcSqVqqamxtybOXDgwIsXL7JpBWRrNugZvS636+EJCQnR0dFGD5p3B8Jh63v37s2ePdvW1jYsLEzfjdHJkyfJtwu+deuWp6fnqFGjHj9+TIJlVVVVdHS0TCbj4bdqKsSM6ri5uZHErLMI930amzXr79br169n/Hz+5MmTeehWnd0hKGFSUpKHh0dVVZWgomIWTEBAwJUrV5jVRWtBtmaDHh914+Lixo8fz4mnp0+fOjo6cmJKUEZMztaNjY2ZmZn9+/d3dnZeu3Yt+WnlVL4laLXa5ORkqVTq7++fkpJSUFCAvtFXWVl58+bNtLS0wMBAGxubRYsW8fMEOBW2RoeETk3y0YKlZ1zarNk6Jydn+PDh5G3XWVpfX29jY8Ph1vE6vQhfmJGR4eLiIpqfA/z8/K5du8YGdsjWbNDjo65Go+nVq5fOTaAYuO/bty/j55gYuOOnignZ+vnz50uXLpXJZEFBQSxfz9CJVU5OTmRkpI+Pj5OTU7t27RwdHb29vWfOnHn8+HE2TzDp9EUi1MnB1IUklhEEsbKywpE0yFpZWZHXFXJpaWkp8XgVKgFnZmaOGTOGiqaIdbKyspRK5bNnz0TTRh8fH5bb0kG2NoPBUFhYKJfLy8rK2Me6bt26OXPmsLcjKAsmYeucnJwRI0ZIpdKYmBgxzSk6exZHzGhW31+dFixTaGtri3tqgQoOwcHB3L69ScWpoHSys7MVCkVxcbGgomIZjEqlKiwsZGMEsjUb9PirGx8fz8kZfM+fP1coFPzFbWRP4EsYSBjZIVJVVZWYmNipU6fPP/98z5496ClSxnYK7ZspAv369bt69Sqt4Kuqqmxtbc39+WdaTcYp5+bmymQylsSGsymEbO/eve/du8cmEsjWbNDjr65Go/n0009ZHuGChuvt7f3HH3/wF7pYPF27dm3q1Km2trZfffUVJwc2iAUY2A69CERERKSnp+st1lWwdevWqVOn6iqxCFl+fr5MJtP3hKZZQ9CzZ0+WqwWQrc1mANy5c0cmk7F/5mLDhg3G2EbDbHCkGWh9ff22bdu8vLy6d+++adMmKs+I0fQA1UWLQHJyMt23MPr373/mzBnRIkLasMLCQplMlpubS6plroUeHh6PHj1iEz1kazbo8V131apVY8eOZen15cuXcrncfDfwY9l86tVLSkq+/fZbOzu7kJCQCxcuUK8INSECKAK5ubmDBw+mjoYlX5vFxcUKhYLkrDbqMApT083N7enTp2xig2zNBj2+62o0Gi8vr8zMTJaOfX198/LyWBoRa3WtVnvo0KFBgwY5OjrGx8ezX8wQK1CwXQYRqKys7NChg0E1oJCYmDh37lyQtZzEs2fPlEolJ7/0CRY0V1fXFy9esAkPsjUb9ExQ9+7du+zXw5OSkiIjI00QvbBdvn79euXKlQ4ODoMHD2Z5Eq2wGwqj4w8Be3t76m9O9+rVi+5Tafy1xGieSktLXVxcMjIyjOZBEIY7derE8tYfsrUgOpJWEKtXr2b5Oubr169lMhlcDAew5+XljR8/3t7eft68eSx/WwI2YQIigCBIQEAAxf0mi4qKWB7bZY6AV1VVeXh4JCUlmWPwtGJWKpXoHke0amGVIVtj0TCPtEaj6d279969e9mE6+fnx/JAGDbeBVK3pqYmKSmpW7duffr02bFjhyW/NiOQHhFfGFFRUSkpKVTa9cNfHyqaotGpqalRqVRxcXGiaRFJQxwcHN68eUOiYLAIsrVBiISogK6HY89bpBvlpk2bZs2aRbeWaPRv3749a9YsW1vb6dOn37hxQzTtgg0RGgIpKSkUX8Ho3LkzOKhNaK0wRjxqtTogIGDhwoXGMC5AmzKZrLa2lk1gkK3ZoGfKumvWrBk1ahTjCEpLS6VSqaUthjc0NPz6668+Pj5dunT56aefWN7qMgYfVrQcBC5evBgQEGCwvVevXu3Vq5dBNdEoaDSa4ODgiIgI0bTIYEPs7OxYrt5BtjYIskAVtFptnz599uzZwzi+gICAnJwcxtXNq+KTJ08WL14slUpHjRql77RK82oRjNYsEKiurra3tzcY6ty5cxMTEw2qiUNBq9WG/vWxqG8L7du3Z3msLWRrMx7/9+7dk8lkr169YtaGlJSU8PBwZnXNqFZ2dnZgYKBcLl+2bBnLNyjMqNUwVOEg0KFDB/Jj2bRarVwuf/nypXBiNmokERERwcHBLKnLqBEaw7i1tTVLs5CtWQJo4uoJCQkjR45kFkR5ebm9vb1Yr5mKioo1a9YolcqAgICsrCyxNpNZ18NafCIwePBg8v25zpw5079/fz5DMqGvhQsXBgQEsFwTNmH8jF1DtmYMnUgqarValUq1e/duZu0ZMGDAqVOnmNUVbK3Lly9PnjzZ1tY2Kirq/v37go0TBmYhCERHRycnJ5M0durUqVu3biVREE1RXFycSqWyzO17IVuLZhgzb8j9+/cZr4dv3bp12rRpzH0LqWZdXd3WrVt7/PXZunUrg5MKhdQaGIt4EEhPTyd5nEqtVtva2lZVVYmnwXpakpSU5OHhYQkt1QkAZGudsFicMDExccSIEQyaXVlZaWdnZ+7HPt6/fz8qKsrW1nby5MmXL19mgAOsAhEwHgJXr17t16+fPvsHDx4MDg7WVyoaeUZGhouLC8vNvMwaDcjWZt19nAWv1Wo/++yzXbt2MbA4ePBgM91JX6PRZGVlBQQEKJXKNWvWsNwniAF0sApEgAoCdXV1tra2+jTHjBnDfud/fcYFIs/KylIqlc+ePRNIPCYJA7K1SWAXotMHDx7IZDIGj5Wmp6eHhYUJsUn6Y3rx4sWyZcvkcnlgYKCZ3mrobxwsESECTk5OOr9WVldX29jY1NfXi7DN/2tSdna2QqFgebTz/4yZ8X/I1mbceZyHvm7dOgZLalVVVba2tg0NDZzHYwyDZ8+eHTVqlFQqXbx48ZMnT4zhAtqECHCOwPDhw3XubbBt27bJkydz7k44BnNzc2UyWWFhoXBCMlUkkK1NhbwQ/Wq1Wm9v7507d9INbtiwYceOHaNbi0/9N2/e/PTTT126dPHx8fn111/N5d6CT4igLyEjsGjRovXr1xMjHDhw4IkTJ4hycUjy8/NlMll+fr44msOmFRqNpn379mwsIAgC37dmCaCwqhcVFTFYD9++fTv2Br+mpoblfrYcgnLjxo3p06fb2trOmjXr9u3bHFqGpiACvCGwc+fOGTNm4Nyhu/+KdSeAwsJCmUxG/qI5DhARZ9VqtZ2dHcsGQrZmCaDgqv/000/Dhw+nFdbbt29tbGzQL6xarXbUqFEm//KqVqt37NjRp0+fbt26JSUlWeYLmrQ6ESoLGYGCggKVSoWLcMOGDbNnz8YJxZEtLi5WKBTwmRLQm7W1tTKZDGSZJSBbM8NNuLW0Wq2Pj8+OHTtohRgUFHT48GEEQb799tsOHTrQqsut8qNHj+bNm2dvbz9+/Pi8vDxujUNrEAGTINDQ0PDJJ5/gXPft25fi0de4igLPPnv2TKlUZmVlCTxOPsN78+aNg4MDS4+QrVkCKMTqRUVFUqnU4J7YlZWVqampN2/eRBBk586doaGhW7ZskUgkptoE8fDhw4MHD3ZwcFi5ciWbw0CF2CUwJotHoHPnzthL8uHDh0qlUnyolJaWuri4ZGRkCKFpbpgPGg9G4KZPYozIKyoq2Hc3ZGtjdI3pba5fvz4wMNBgHDt37mzWrNm///3vzz//vHXr1s2bN5dIJNOnTzdYkUOF0tLS+Ph4R0fHQYMGHTp0yKKO5eEQRmhK4AiMHDly1apV4Dem2NjY7777jlnMFCkHqDHzwqBWVVWVh4dHUlISg7rGqIIigCAISKBecFmiAufBlJaWdurUiaVZyNYsARRoda1W6+vru337doPx7dq1q1mzZhLMZ9WqVQZrcaJw4cKFkJAQOzu7b7/9tqSkhBObwjQC5k03t//e0YMJAisRZvAwKk4Q+P7778eOHTt16lTUWteuXe/cucPMMiAbkEDtYLMgDRLMfFGvVVNTo1Kp4uLiqFcxtiZoO0igHnFZcDEaL54XL164urqytA/ZmiWAwq1eXFwslUqfP39uMMRff/31nXfeAXy9f/9+g1XYKNTU1GzatKl79+5eXl7btm0T99YQKFBgdiBJsIEU1hU+Anv37h00aJBEIklMTLx586a7uzvjmImjCDUF5Fj6wQoZezRYUa1WBwQELFy40KCmURXAJCaRSAAIRASoSLiN8+nTp+zvyyFbc9spwrL2888/Dxs2jEpMe/bsAYSN/pJNpRZdnTt37nz11Ve2trZTp069du0a3ermqw9mB5KE+bYORk4FgTt37nTv3l0ikTRr1mzMmDE//vjj1atXk5OTp06dmp6ers8Cjn5QNXQUgbEE6mIlIA0SQI3zhEajCQ4OBieX6IyZc6ckBtEAAFsTNYmYECXEWmwkjx498vDwYGMBvm/NEj2hV9dqtf369aP4xMfevXubNGliZWXF+elVjY2Ne/bs+fzzzzt16pSYmMjtITwmnxqoDAJ0LsDNCDqFVKyJVccsupIx+BqNxtraGn00xMrK6r333kPbO3/+fIM2Af2gmriBBKpj5SANEkCN24RWqw3964N74gQXM7dOya0B1/raTpQTJeQu6JYWFxf37NmTbi2cPvxujQNEbNmSkhKK6+Ho61utW7fmEIJnz57FxMRIpdIRI0bo3HmRK1/g+uTKILd2SOYCkiJuYzAXawLvSjYwduvWTSqVog1E/y5ZsoSKQRwm+sYMVg7SIEHFEQOdiIiI4OBg4h4vuJgZWGZcBbgmth2VkP9l7Jek4r1793r37k2iQKUIsjUVlMxbJykpaejQoVTaUFdXJ5fLcffIVCoSdU6ePBkUFCSTyZYuXUrlt3OiBVoScH3SqsWbMnHWQF2DWYO3SITvSOBdyQbAcePGubm5oQ2USCSxsbEUreEwIQ4nMJBAAqwDs/+5lCTIhQsXBgQEqNVqog4uZqKC8SQmdK2vUYWFhcTtcfQp65NDttaHjKjkn3/+OcXfxsBUgiasrKxoAVFZWbl27VpnZ+f+/ftnZmbydnK2AK9PLG7k0ytWE6YF3pVsOmj58uU9evSQSCRWVlarV6+mbkqYmMTFxalUKn37DJowZhO61tenN2/e9PHx0VdKUQ7ZmiJQ5q328OFDqVSq73xZdHDr/Nu0aVOKLc/Pzw8LC7O1tZ09e/a9e/co1uJKTYDXJ1dNszQ7Iu7KAwcOODg4WFlZ6Tzhg6SjBYhJUlKSh4cHyTMoJokZdYr9S4Iqn0XXrl3z8/Nj6RGyNUsAzab6xo0bBw8erDNc7ODGpQ2ydV1dXXp6eq9evTw8PFJSUkx1HAgats7WQaF5ISDiriwqKvrXv/4FXrmm0i+46xF9MYlKRaPqZGRkuLi46Dyx+89HlwkfusG0bt2aYOO/Am4frKEVWFVV1c6dO0NCQlQqlVQqbdu2rb29vUqlGjduXFpa2qtXr0isXblyJSAggESBShFkayooiUTHz88vLS2N2Bh9F4ZEIiFh66Kiojlz5tja2k6cONGE2x0Tgyc2EErMAgGxdiWxXUBC95cmY/QjXRLKyspSKpX6Fuo4iZDkKGiSIk5c6zTy9OnTKVOm2NnZTZ48ee/evUVFRej6f01NTVFR0cGDB8PDwzt06DBkyJBLly7ptHDx4sWBAwfqLKIuhGxNHSuz10TXw58+fYprCZg7iAkiW2s0mgMHDgwYMMDJyWnVqlVlZWU4azDLLQJ0J1NuvUNr7BEgXlZAQry+2LujboEBCWVnZysUiuLiYupeGGiSUDJJEQNHVKokJCTY29snJiYa3McpMzPTzc0tKCiIOCueP39+yJAhVNyR6EC2JgFHhEXJycmDBg3CNQzMHcQEdjZ5+fLlihUrOnToMHTo0KNHj+KMwCznCDCYTDmPARpkjwDxsgIS7PXF3hEtCwxI6OjRozKZrLCwkJYjBsoklExSxMAReRW1Wh0aGurv719RUUGuiS1du3atQqHAnR/4+++/0z3IGGsTTUO2JmIickn//v1TU1OxjQRzBzGBzibnzp0bM2aMvb39ggULHj9+jK0L00ZCgMFkSryjN1Js0CwtBIiXFZCYhK0Zk9BHH32Emzpo4UBdmYSSSYqo26eoGRoaOm3aNOKr5AarX7p0SS6XYwk7JydnxIgRBiuSK0C2JsdHhKWPHj2SSqXY9XAwdxATTZo0cXV1/eyzz3bt2qXzrUoRAmTqJjGeTIl39KZuCvT/JwLEywpITMLWHJKQkTqYhJJJirgNJiEhwd/fnwFVo2Hk5+fLZLJbt26h2ZMnT44ePZplhJCtWQJoltU3b96MfeQBzB3EhJWVlfG2DTdL7IwftPAnU+NjICoPxMsKSPhna25JyEj9RELJJEUcBvPkyROZTEZrAZzo/ciRI56enuhmU8eOHRs/fjxRh5YEsjUtuMSj7O/v/8svv6DtAXMHMcH/bCIeiBm1xCwmU0Yts9xKxMsKSHi+vjgnISN1KgklkxRxGMzUqVMTExPZGxw5cuTGjRsRBDl8+PAXX3zB0iBka5YAmmv1x48f29vbP3nyRIArdeaKKeu4zWUyZd1QyzIAuJmY4JmtOSchI3UkCSWTFHEVTGVlpZ2dncEnwKm4e/z4sUwm02q1Bw8enDRpEpUqJDqQrUnAEXnRli1bBgwYANlaON1sLpOpcBAzi0iIJA0kfLK1MUiIDf4k2xKTUDJJEfVgCgoKjhw5ok9/165dX375pb5SunJ/f/8zZ85kZWWFhYXRrYvTh2yNA8SysgEBASkpKWDuICb4nE0sC3pCa4U2mRIChAK9CFRXV+st4/Eps4KCgs2bN+t7GtQYJETSaoNFcXFxiYmJOs/nJaFkkiKDHrEKffv29fDwyMrKwgrRdGhoaGZmJlHOTJKSkjJr1qw9e/ZMnz6dmQVQC7I1gMISE0+ePHF1dSWSNJBAtuZ2WKxcufLEiRM6bQptMtUZJBTqRODevXtDhw7FvrGDVQNXEzHB+fU1ZMgQe3v7DRs2EBdyjUFC2GbSTVdWVrZr1+6TTz5Zu3YtjrNJKJmkiFYABQUF6Fnjrq6uu3fvxh482Lt3b5KTDsrLy0ePHv3RRx8FBweXl5cbdHrjxo1+/frt2rVr5syZBpXJFSBbk+Mj/tKGhgbiJAIknM8m4geUtIX3799/9913+/Tpk52djVMU2mSKCw9myRFYtGiRRCLx9/cncja4mogJzq+vkpKSVq1aSSSS9u3b41iQnITIW0csRUmIKKclSUtLQzHBcTYJJZMU0XKNIMjcuXNBjzg7O2dkZKDvaykUirdv3+qzNnbsWGtra4lE0qpVq8DAQH1qQF5RUaFUKrdv3/7VV18BIbMEZGtmuImqFhiyxATns4mogGPUmMWLF6M49+7d+9ixY8CGACdTEBtMGESgtrZWJpOhPdu/f//c3FxQhXhZAYkxrq8VK1YA+23btv3xxx/RhXpyEgLRUkygJERRmUStb9++IFpra2v0DoOEkq2srIC+MRKtWrVq164dScAoVaOu27RpQ6IJiqytrdPS0qKiooCEWQKyNTPcRFWLZNAbYzYRFXb0G1NbWyuXywHmn376KbqNqzAnU/rts9wa+/fvB90qkUj8/PzOnTtH/hQnVt+oaYMkRLfb6urqjBcwCVuTFNFtwpEjR0ATmjRpMmrUKHRTVYVCQfIgAoPv1k5OTr/88svcuXPpRojTh2yNA8QSs2DIwoQJEWjbti2Hg8+ok6kJUTI71++//z5JzMa4G96xYwfw2LJly8jIyJcvXyIIQk5CdMdeRUWFk5MT3Vo4/bdv39ra2qLRNmvWbPz48Xfu3EEQhISSSYpwxsmzarVaqVRKJBIrK6vAwMAbN24AfS8vr/v374MsLkH3d+uCggJfX9/NmzfPmzcPZ4puFrI1XcREqA+ubWLCGLOJCBGk06Ta2lqpVAqg7tev3++//y7MyZROs6AuMm3aNNCtvr6+Z86cQUEBQmKC8+ururoa5b8WLVrMmDEDu8EwOQnR7T+UhOjWwul/++23EokEy9OoAgklkxThjJNn4+PjJRLJgAEDrly5gtOcMGHCgQMHcELG2fT09BkzZiQlJS1atIixEbQiZGuWAIqhOnESARLOZxMx4MWuDejjSBKJxMfH5+zZs8CYACdTEBtMGETg8uXLTZs2RbsV8DRaC1xNxATn19eCBQveeeedsLCwhw8f4mI2BgnhXNDKFhYWvvfee+PGjUO/T2PrklAySRHWAnn6+fPnw4cPP3/+vE61tLS08PBwnUUMhIGBgcePH1+/fn1MTAyD6tgqkK2xaFhomjiJAAnns4mFQvy/Zj948ODdd9/19vbOycn5n+y//4U2meLCg1kSBLRaba9evXR2K/nv1txeXyUlJVOnTn3w4IHOUI1BQjodURRu3bpV3+GbJJRMUkTRL4IgtbW1JMovX750cHDAvtNFokxeVFlZaWtr29DQkJiYuHTpUnJlg6WQrQ1CJDgFN8IHQRCsjG7EgJuJCW5nE7qBiU//xx9/PH36tM52CW0y1RkkFOpE4ObNm/q6lU+2Jj8wyhgkpBMN9kISSiYpYu8XWBgyZMi+fftAlnEiOjoaXQBfs2bN8uXLGdtBK0K2Zgmgyaqj9Ex0r09O1AQSIkkDCWRrgJKxE2Y0mRobCpHZB1cTMcHz9cU5CRmpp0gomaSIw2AuXrzo7u7O0mBJSYlcLkdf3Y6Pj4+Li2NpELI1SwBNVl0fK+uTkwRKnESAhOfZhCRISygyl8nUEvqCwzaCq4mY4Pn64pyEOEQJa4qEkkmKsBbYp4OCgtauXcvYTn19vZeX17Zt21ALsbGxq1atYmwNrQjZmiWAJquuk5V1Cg2GSJxEgITn2cRgqOJWMJfJVNy9wHnrwNVETPB/fXFCQlKpFJ1qwF99P8ZhFagDS0LJJEXU7VPRLCsrc3BwuHTpEhVlok5ISAh2O5Rly5YlJCQQ1WhJIFvTgktAykRiJkoohkucRICE/9mEYsxiVeNkMgV39GJFyajtAgQDEqg7XJZ6DOBqIib4v744JCEw4WDbBYSAv7EJiqCRUDJJEUXj1NXy8vLkcnl+fj71KgiC1NfXh4SEDB8+HPsYwZIlS9atW0fLDlEZsjURE/OQYK8KBtcDtpHYiw2X5n82wQZmgWkOJ1MLRI/DJuu7vnByKh5x1xQ2a5LriysSwkGBtgsrBGmQoAIXP7ujUIwkLy9PJpORHK+Js1NSUuLl5RUVFYWlagRBFi9e/PPPP+OU6WYhW9NFTCj6uAsAzYK/tKIk2XrXysqKlimozB4BriZT9pFYsgWd1xez22IsPePSJmFrBEE4ISEcRKJkawRBbt265enpOWrUqMePH5NcEVVVVdHR0TKZTOfK1oIFC5KTk0mqUymCbE0FJagDEeAVAU4mU14jFp0zHBUBnibKDTYdx9DYrKnYmhMSwkEhVrZGEESr1SYnJ0ulUn9//5SUlIKCgoqKCgRBKisrb968mZaWFhgYaGNjs2jRIn2Hd0VHR2/ZssXgUCFXgGxNjg8shQiYBgFO7uhNE7oovOKoCLRJnxwoEBNYesalTcjW7EkIBwWHbN26dWscUCDbunVrIsK8SXJyciIjI318fJo1a9auXTtHR0dvb++ZM2ceP368oaGBJIxvvvkmNTWVRIFKEWRrKihBHYiACRBgf0dvgqDF4hJHRWizUKGbmxutVgr/lyZAQk5OTtRJCAcRAAcksAsStBATvjLdh91mz56dkZHBsl2QrVkCCKtDBIyOAHYybdq0KfU7eqN3FzMXAAAFFElEQVRHJl4HJFTEuNFLlixp1qyZWq1mbEGYFcEXX5AQZpwcRkWXrSMiInbs2MEyAMjWLAGE1SECvCJAd5rgNTjoTD8C1dXVH374oUQi+emnn/RrwRLzQIDuZThjxozdu3ezbBtka5YAwuoQAV4RoDtN8BocdKYfgTVr1qBfPdu1a1ddXa1fEZaYAQJ0L8OpU6dmZmaybBhka5YAwuoQAV4RoDtN8BocdKYHAbVajR47jRL2smXL9ChCsXkgQPcy/PLLL/fv38+ybZCtWQIIq0MEeEWA7jTBa3DQmR4EUv5/e3fM0koQhWF4wSKQztYiEBBEAoKQIiBYBAIWgmBIIQQEi7Rp/S2p/AUpUwhCCiEgWAhCiqBgoQQEhYhgEcItLkThTubMOOt4NvftZM+se+Y57nxFwJydzT/TTZJkdXX19fV1wVouZ0DA9zU8OTnp9XqBGyOtAwG5HYGoAr7HRNTmeJhJYDabbW5uJklSKBTy+Xwul0uS5PT01LSWa9kQ8H0Nj4+Pz8/PA/dGWgcCcjsCUQV8j4mozfEwk0C3211ZWWm3229vb2tra3d3d/V6PZ/PPz09mZZzLQMCvq9hs9m8uLgI3BhpHQjI7QhEFfA9JqI2x8NMAq1W6+rq6m9lPr5+v9/pdEzLuZYBgfkcHXs9Ojrq9/uOixctI60XyXAdAY0CvseExj38Tz1Np9Ov/+WK8S3H8H3n2Gg0Li8vA/dOWgcCcjsCUQV8j4mozfEwSYDxSULZqPvO8fDwcDAYBO6NtA4E5HYEogr4HhNRm+NhkgDjk4SyUfed48HBwfzTkG/vkLT+Nh03IvALAr7HxC+0yCMXCzC+xTZZqvjOcX9///r6OnCHpHUgILcjEFXA95iI2hwPkwQYnySUjbrvHPf29m5ubgL3RloHAnI7AlEFfI+JqM3xMEmA8UlC2aj7zrFWq93e3gbujbQOBOR2BKIK+B4TUZvjYZKA5Zubv/6zM35WLuD7NdvVanU4HEp/HUKdtBaAKCOgSoC0VjUOmkHARWB3d3c0GrmstKwhrS04lBBQJ0BaqxsJDSEgCezs7Nzf30urhDppLQBRRkCVAGmtahw0g4CLQKVSeXh4cFlpWUNaW3AoIaBOgLRWNxIaQkASKJfLj4+P0iqhTloLQJQRUCVAWqsaB80g4CKwvb09Ho9dVlrWkNYWHEoIqBMgrdWNhIYQkAS2traen5+lVUKdtBaAKCOgSoC0VjUOmkHARaBUKr28vListKwhrS04lBBQJ0BaqxsJDSEgCWxsbEwmE2mVUCetBSDKCKgSIK1VjYNmEHARWF9ff39/d1lpWUNaW3AoIaBOgLRWNxIaQkASKBaLHx8f0iqhTloLQJQRUCVAWqsaB80g4CJQKBSm06nLSssa0tqCQwkBdQKktbqR0BACkkAqry1pLTFTR0CTQCqvvaYN0QsCyy+QymtLWi//Hwo7XCaBVF77ZQJhLwjoF0jltSWt9Q+aDhH4FEjltf/8dfyEAAI/L5DKa0ta//ygeAIC6QnwBcnKv/mY9hD4V8D3+7CNBwZpbWThIgIIIIAAAooESGtFw6AVBBBAAAEEjAKktZGFiwgggAACCCgSIK0VDYNWEEAAAQQQMAqQ1kYWLiKAAAIIIKBIgLRWNAxaQQABBBBAwChAWhtZuIgAAggggIAiAdJa0TBoBQEEEEAAAaMAaW1k4SICCCCAAAKKBEhrRcOgFQQQQAABBIwCfwD/NJRlnOdWCAAAAABJRU5ErkJggg==;" parent="1" vertex="1">
                    <mxGeometry x="-940" y="20" width="655" height="530" as="geometry"/>
                </mxCell>
                <mxCell id="4" value="HA" style="shape=tape;whiteSpace=wrap;html=1;" parent="1" vertex="1">
                    <mxGeometry x="50" y="60" width="50" height="40" as="geometry"/>
                </mxCell>
                <mxCell id="5" value="HA" style="shape=tape;whiteSpace=wrap;html=1;" parent="1" vertex="1">
                    <mxGeometry x="50" y="110" width="50" height="40" as="geometry"/>
                </mxCell>
                <mxCell id="6" value="HA" style="shape=tape;whiteSpace=wrap;html=1;" parent="1" vertex="1">
                    <mxGeometry x="50" y="160" width="50" height="40" as="geometry"/>
                </mxCell>
                <mxCell id="7" value="HA" style="shape=tape;whiteSpace=wrap;html=1;" parent="1" vertex="1">
                    <mxGeometry x="50" y="220" width="50" height="40" as="geometry"/>
                </mxCell>
                <mxCell id="8" value="HA" style="shape=tape;whiteSpace=wrap;html=1;" parent="1" vertex="1">
                    <mxGeometry x="50" y="270" width="50" height="40" as="geometry"/>
                </mxCell>
                <mxCell id="9" value="HA" style="shape=tape;whiteSpace=wrap;html=1;" parent="1" vertex="1">
                    <mxGeometry x="50" y="320" width="50" height="40" as="geometry"/>
                </mxCell>
                <mxCell id="10" value="HA" style="shape=tape;whiteSpace=wrap;html=1;" parent="1" vertex="1">
                    <mxGeometry x="50" y="370" width="50" height="40" as="geometry"/>
                </mxCell>
                <mxCell id="11" value="HG" style="shape=tape;whiteSpace=wrap;html=1;" parent="1" vertex="1">
                    <mxGeometry x="50" y="460" width="50" height="40" as="geometry"/>
                </mxCell>
                <mxCell id="12" value="Monitor" style="swimlane;" parent="1" vertex="1">
                    <mxGeometry x="230" y="170" width="300" height="240" as="geometry"/>
                </mxCell>
                <UserObject label="dispararTransicion(transicion)" placeholders="1" name="Variable" id="82">
                    <mxCell style="text;html=1;strokeColor=none;fillColor=none;align=center;verticalAlign=middle;whiteSpace=wrap;overflow=hidden;" parent="12" vertex="1">
                        <mxGeometry y="110" width="170" height="20" as="geometry"/>
                    </mxCell>
                </UserObject>
                <mxCell id="100" value="Semaphore&lt;br&gt;mutex" style="whiteSpace=wrap;html=1;aspect=fixed;" parent="12" vertex="1">
                    <mxGeometry x="210" y="90" width="70" height="70" as="geometry"/>
                </mxCell>
                <mxCell id="13" value="Colas" style="swimlane;" parent="1" vertex="1">
                    <mxGeometry x="370" y="440" width="240" height="240" as="geometry"/>
                </mxCell>
                <mxCell id="79" value="" style="group" parent="13" vertex="1" connectable="0">
                    <mxGeometry x="20" y="53" width="81" height="150" as="geometry"/>
                </mxCell>
                <mxCell id="40" value="Semaphore" style="rounded=0;whiteSpace=wrap;html=1;" parent="79" vertex="1">
                    <mxGeometry x="1" width="80" height="10" as="geometry"/>
                </mxCell>
                <mxCell id="43" value=".." style="rounded=0;whiteSpace=wrap;html=1;" parent="79" vertex="1">
                    <mxGeometry y="10" width="80" height="10" as="geometry"/>
                </mxCell>
                <mxCell id="44" value="" style="rounded=0;whiteSpace=wrap;html=1;" parent="79" vertex="1">
                    <mxGeometry x="1" y="20" width="80" height="10" as="geometry"/>
                </mxCell>
                <mxCell id="45" value="" style="rounded=0;whiteSpace=wrap;html=1;" parent="79" vertex="1">
                    <mxGeometry x="1" y="30" width="80" height="10" as="geometry"/>
                </mxCell>
                <mxCell id="46" value="" style="rounded=0;whiteSpace=wrap;html=1;" parent="79" vertex="1">
                    <mxGeometry x="1" y="40" width="80" height="10" as="geometry"/>
                </mxCell>
                <mxCell id="47" value="" style="rounded=0;whiteSpace=wrap;html=1;" parent="79" vertex="1">
                    <mxGeometry x="1" y="50" width="80" height="10" as="geometry"/>
                </mxCell>
                <mxCell id="48" value="&lt;meta charset=&quot;utf-8&quot;&gt;&lt;span style=&quot;color: rgb(240, 240, 240); font-family: helvetica; font-size: 12px; font-style: normal; font-weight: 400; letter-spacing: normal; text-align: center; text-indent: 0px; text-transform: none; word-spacing: 0px; background-color: rgb(42, 42, 42); display: inline; float: none;&quot;&gt;Semaphore&lt;/span&gt;" style="rounded=0;whiteSpace=wrap;html=1;" parent="79" vertex="1">
                    <mxGeometry y="140" width="80" height="10" as="geometry"/>
                </mxCell>
                <mxCell id="49" value="" style="rounded=0;whiteSpace=wrap;html=1;" parent="79" vertex="1">
                    <mxGeometry y="130" width="80" height="10" as="geometry"/>
                </mxCell>
                <mxCell id="50" value="" style="rounded=0;whiteSpace=wrap;html=1;" parent="79" vertex="1">
                    <mxGeometry y="110" width="80" height="10" as="geometry"/>
                </mxCell>
                <mxCell id="51" value="" style="rounded=0;whiteSpace=wrap;html=1;" parent="79" vertex="1">
                    <mxGeometry y="120" width="80" height="10" as="geometry"/>
                </mxCell>
                <mxCell id="52" value="" style="rounded=0;whiteSpace=wrap;html=1;" parent="79" vertex="1">
                    <mxGeometry y="100" width="80" height="10" as="geometry"/>
                </mxCell>
                <mxCell id="53" value="" style="rounded=0;whiteSpace=wrap;html=1;" parent="79" vertex="1">
                    <mxGeometry y="90" width="80" height="10" as="geometry"/>
                </mxCell>
                <mxCell id="54" value="" style="rounded=0;whiteSpace=wrap;html=1;" parent="79" vertex="1">
                    <mxGeometry y="80" width="80" height="10" as="geometry"/>
                </mxCell>
                <mxCell id="55" value="" style="rounded=0;whiteSpace=wrap;html=1;" parent="79" vertex="1">
                    <mxGeometry x="1" y="70" width="80" height="10" as="geometry"/>
                </mxCell>
                <mxCell id="56" value="" style="rounded=0;whiteSpace=wrap;html=1;" parent="79" vertex="1">
                    <mxGeometry x="1" y="60" width="80" height="10" as="geometry"/>
                </mxCell>
                <mxCell id="57" style="edgeStyle=orthogonalEdgeStyle;rounded=0;orthogonalLoop=1;jettySize=auto;html=1;exitX=0.5;exitY=1;exitDx=0;exitDy=0;" parent="79" source="56" target="56" edge="1">
                    <mxGeometry relative="1" as="geometry"/>
                </mxCell>
                <mxCell id="101" value="" style="group" parent="13" vertex="1" connectable="0">
                    <mxGeometry x="185" y="38" width="40" height="180" as="geometry"/>
                </mxCell>
                <mxCell id="78" value="int" style="group" parent="101" vertex="1" connectable="0">
                    <mxGeometry x="9.5" width="21" height="140" as="geometry"/>
                </mxCell>
                <mxCell id="62" value="" style="rounded=0;whiteSpace=wrap;html=1;" parent="78" vertex="1">
                    <mxGeometry x="0.25925925925925924" width="20.74074074074074" height="9.333333333333334" as="geometry"/>
                </mxCell>
                <mxCell id="63" value="" style="rounded=0;whiteSpace=wrap;html=1;" parent="78" vertex="1">
                    <mxGeometry y="9.333333333333334" width="20.74074074074074" height="9.333333333333334" as="geometry"/>
                </mxCell>
                <mxCell id="64" value="" style="rounded=0;whiteSpace=wrap;html=1;" parent="78" vertex="1">
                    <mxGeometry x="0.25925925925925924" y="18.666666666666668" width="20.74074074074074" height="9.333333333333334" as="geometry"/>
                </mxCell>
                <mxCell id="65" value="" style="rounded=0;whiteSpace=wrap;html=1;" parent="78" vertex="1">
                    <mxGeometry x="0.25925925925925924" y="28" width="20.74074074074074" height="9.333333333333334" as="geometry"/>
                </mxCell>
                <mxCell id="66" value="" style="rounded=0;whiteSpace=wrap;html=1;" parent="78" vertex="1">
                    <mxGeometry x="0.25925925925925924" y="37.333333333333336" width="20.74074074074074" height="9.333333333333334" as="geometry"/>
                </mxCell>
                <mxCell id="67" value="" style="rounded=0;whiteSpace=wrap;html=1;" parent="78" vertex="1">
                    <mxGeometry x="0.25925925925925924" y="46.666666666666664" width="20.74074074074074" height="9.333333333333334" as="geometry"/>
                </mxCell>
                <mxCell id="68" value="int" style="rounded=0;whiteSpace=wrap;html=1;" parent="78" vertex="1">
                    <mxGeometry y="130.66666666666666" width="20.74074074074074" height="9.333333333333334" as="geometry"/>
                </mxCell>
                <mxCell id="69" value="" style="rounded=0;whiteSpace=wrap;html=1;" parent="78" vertex="1">
                    <mxGeometry y="121.33333333333333" width="20.74074074074074" height="9.333333333333334" as="geometry"/>
                </mxCell>
                <mxCell id="70" value="" style="rounded=0;whiteSpace=wrap;html=1;" parent="78" vertex="1">
                    <mxGeometry y="102.66666666666667" width="20.74074074074074" height="9.333333333333334" as="geometry"/>
                </mxCell>
                <mxCell id="71" value="" style="rounded=0;whiteSpace=wrap;html=1;" parent="78" vertex="1">
                    <mxGeometry y="112" width="20.74074074074074" height="9.333333333333334" as="geometry"/>
                </mxCell>
                <mxCell id="72" value="" style="rounded=0;whiteSpace=wrap;html=1;" parent="78" vertex="1">
                    <mxGeometry y="93.33333333333333" width="20.74074074074074" height="9.333333333333334" as="geometry"/>
                </mxCell>
                <mxCell id="73" value="" style="rounded=0;whiteSpace=wrap;html=1;" parent="78" vertex="1">
                    <mxGeometry y="84" width="20.74074074074074" height="9.333333333333334" as="geometry"/>
                </mxCell>
                <mxCell id="74" value="" style="rounded=0;whiteSpace=wrap;html=1;" parent="78" vertex="1">
                    <mxGeometry y="74.66666666666667" width="20.74074074074074" height="9.333333333333334" as="geometry"/>
                </mxCell>
                <mxCell id="75" value="" style="rounded=0;whiteSpace=wrap;html=1;" parent="78" vertex="1">
                    <mxGeometry x="0.25925925925925924" y="65.33333333333333" width="20.74074074074074" height="9.333333333333334" as="geometry"/>
                </mxCell>
                <mxCell id="76" value="" style="rounded=0;whiteSpace=wrap;html=1;" parent="78" vertex="1">
                    <mxGeometry x="0.25925925925925924" y="56" width="20.74074074074074" height="9.333333333333334" as="geometry"/>
                </mxCell>
                <mxCell id="80" value="VectorCola" style="text;html=1;strokeColor=none;fillColor=none;align=center;verticalAlign=middle;whiteSpace=wrap;rounded=0;" parent="101" vertex="1">
                    <mxGeometry y="160" width="40" height="20" as="geometry"/>
                </mxCell>
                <mxCell id="81" value="Red De Petri" style="swimlane;" parent="1" vertex="1">
                    <mxGeometry x="554.5" y="170" width="245.5" height="240" as="geometry"/>
                </mxCell>
                <mxCell id="86" value="" style="endArrow=classic;html=1;exitX=1;exitY=0.5;exitDx=0;exitDy=0;exitPerimeter=0;" parent="1" source="4" edge="1">
                    <mxGeometry width="50" height="50" relative="1" as="geometry">
                        <mxPoint x="340" y="310" as="sourcePoint"/>
                        <mxPoint x="230" y="290" as="targetPoint"/>
                    </mxGeometry>
                </mxCell>
                <mxCell id="91" value="" style="endArrow=classic;html=1;exitX=1;exitY=0.5;exitDx=0;exitDy=0;exitPerimeter=0;" parent="1" edge="1">
                    <mxGeometry width="50" height="50" relative="1" as="geometry">
                        <mxPoint x="100" y="130" as="sourcePoint"/>
                        <mxPoint x="230" y="290" as="targetPoint"/>
                    </mxGeometry>
                </mxCell>
                <mxCell id="92" value="" style="endArrow=classic;html=1;exitX=1;exitY=0.5;exitDx=0;exitDy=0;exitPerimeter=0;" parent="1" edge="1">
                    <mxGeometry width="50" height="50" relative="1" as="geometry">
                        <mxPoint x="100" y="180" as="sourcePoint"/>
                        <mxPoint x="230" y="290" as="targetPoint"/>
                    </mxGeometry>
                </mxCell>
                <mxCell id="93" value="" style="endArrow=classic;html=1;exitX=1;exitY=0.5;exitDx=0;exitDy=0;exitPerimeter=0;entryX=-0.034;entryY=0.614;entryDx=0;entryDy=0;entryPerimeter=0;" parent="1" source="7" target="82" edge="1">
                    <mxGeometry width="50" height="50" relative="1" as="geometry">
                        <mxPoint x="170" y="150" as="sourcePoint"/>
                        <mxPoint x="300" y="359.9999999999999" as="targetPoint"/>
                    </mxGeometry>
                </mxCell>
                <mxCell id="94" value="" style="endArrow=classic;html=1;exitX=1;exitY=0.5;exitDx=0;exitDy=0;exitPerimeter=0;" parent="1" source="8" edge="1">
                    <mxGeometry width="50" height="50" relative="1" as="geometry">
                        <mxPoint x="180" y="160" as="sourcePoint"/>
                        <mxPoint x="220" y="290" as="targetPoint"/>
                    </mxGeometry>
                </mxCell>
                <mxCell id="95" value="" style="endArrow=classic;html=1;exitX=1;exitY=0.5;exitDx=0;exitDy=0;exitPerimeter=0;entryX=0;entryY=0.75;entryDx=0;entryDy=0;" parent="1" source="9" target="82" edge="1">
                    <mxGeometry width="50" height="50" relative="1" as="geometry">
                        <mxPoint x="190" y="170" as="sourcePoint"/>
                        <mxPoint x="320" y="379.9999999999999" as="targetPoint"/>
                    </mxGeometry>
                </mxCell>
                <mxCell id="96" value="" style="endArrow=classic;html=1;exitX=1;exitY=0.5;exitDx=0;exitDy=0;exitPerimeter=0;" parent="1" source="10" edge="1">
                    <mxGeometry width="50" height="50" relative="1" as="geometry">
                        <mxPoint x="200" y="180" as="sourcePoint"/>
                        <mxPoint x="230" y="290" as="targetPoint"/>
                    </mxGeometry>
                </mxCell>
                <mxCell id="97" value="" style="endArrow=classic;html=1;exitX=1;exitY=0.5;exitDx=0;exitDy=0;exitPerimeter=0;entryX=0;entryY=0.75;entryDx=0;entryDy=0;" parent="1" source="11" target="82" edge="1">
                    <mxGeometry width="50" height="50" relative="1" as="geometry">
                        <mxPoint x="210" y="190" as="sourcePoint"/>
                        <mxPoint x="340" y="399.9999999999999" as="targetPoint"/>
                    </mxGeometry>
                </mxCell>
                <mxCell id="98" value="Buffer1" style="whiteSpace=wrap;html=1;aspect=fixed;" parent="1" vertex="1">
                    <mxGeometry x="570" y="60" width="70" height="70" as="geometry"/>
                </mxCell>
                <mxCell id="99" value="Buffer2" style="whiteSpace=wrap;html=1;aspect=fixed;" parent="1" vertex="1">
                    <mxGeometry x="660" y="60" width="70" height="70" as="geometry"/>
                </mxCell>
                <mxCell id="103" value="&lt;meta charset=&quot;utf-8&quot;&gt;&lt;div style=&quot;color: rgb(212, 212, 212); background-color: rgb(0, 0, 0); font-family: &amp;quot;droid sans mono&amp;quot;, monospace, monospace, &amp;quot;droid sans fallback&amp;quot;; font-weight: normal; font-size: 14px; line-height: 19px;&quot;&gt;&lt;div&gt;&lt;span style=&quot;color: #d4d4d4&quot;&gt;TAREA_A_BUFFER_1&lt;/span&gt;&lt;/div&gt;&lt;/div&gt;" style="text;whiteSpace=wrap;html=1;" parent="1" vertex="1">
                    <mxGeometry x="-100" y="65" width="160" height="30" as="geometry"/>
                </mxCell>
                <mxCell id="104" value="&lt;meta charset=&quot;utf-8&quot;&gt;&lt;div style=&quot;color: rgb(212, 212, 212); background-color: rgb(0, 0, 0); font-family: &amp;quot;droid sans mono&amp;quot;, monospace, monospace, &amp;quot;droid sans fallback&amp;quot;; font-weight: normal; font-size: 14px; line-height: 19px;&quot;&gt;&lt;div&gt;&lt;span style=&quot;color: #d4d4d4&quot;&gt;TAREA_A_BUFFER_2&lt;/span&gt;&lt;/div&gt;&lt;/div&gt;" style="text;whiteSpace=wrap;html=1;" parent="1" vertex="1">
                    <mxGeometry x="-100" y="110" width="160" height="30" as="geometry"/>
                </mxCell>
                <mxCell id="105" value="&lt;div style=&quot;color: rgb(212 , 212 , 212) ; background-color: rgb(0 , 0 , 0) ; font-family: &amp;#34;droid sans mono&amp;#34; , monospace , monospace , &amp;#34;droid sans fallback&amp;#34; ; font-weight: normal ; font-size: 14px ; line-height: 19px&quot;&gt;&lt;div&gt;&lt;span style=&quot;color: #d4d4d4&quot;&gt;PROCESANDO_EN_NUCLEO_1,&lt;/span&gt;T4&lt;/div&gt;&lt;/div&gt;" style="text;whiteSpace=wrap;html=1;" parent="1" vertex="1">
                    <mxGeometry x="-180" y="160" width="220" height="30" as="geometry"/>
                </mxCell>
                <mxCell id="106" value="&lt;div style=&quot;color: rgb(212 , 212 , 212) ; background-color: rgb(0 , 0 , 0) ; font-family: &amp;#34;droid sans mono&amp;#34; , monospace , monospace , &amp;#34;droid sans fallback&amp;#34; ; font-weight: normal ; font-size: 14px ; line-height: 19px&quot;&gt;&lt;div&gt;&lt;span style=&quot;color: #d4d4d4&quot;&gt;PROCESANDO_EN_NUCLEO_2, T10&lt;/span&gt;&lt;/div&gt;&lt;/div&gt;" style="text;whiteSpace=wrap;html=1;" parent="1" vertex="1">
                    <mxGeometry x="-200" y="225" width="235" height="30" as="geometry"/>
                </mxCell>
                <mxCell id="107" value="&lt;div style=&quot;color: rgb(212 , 212 , 212) ; background-color: rgb(0 , 0 , 0) ; font-family: &amp;#34;droid sans mono&amp;#34; , monospace , monospace , &amp;#34;droid sans fallback&amp;#34; ; font-weight: normal ; font-size: 14px ; line-height: 19px&quot;&gt;&lt;div&gt;&lt;span style=&quot;color: #d4d4d4&quot;&gt;ENCENDER_CPU_1, T7, APAGAR_CPU_1&lt;/span&gt;&lt;/div&gt;&lt;/div&gt;" style="text;whiteSpace=wrap;html=1;" parent="1" vertex="1">
                    <mxGeometry x="-240" y="275" width="480" height="30" as="geometry"/>
                </mxCell>
                <mxCell id="108" value="&lt;meta charset=&quot;utf-8&quot;&gt;&lt;div style=&quot;color: rgb(212, 212, 212); background-color: rgb(0, 0, 0); font-family: &amp;quot;droid sans mono&amp;quot;, monospace, monospace, &amp;quot;droid sans fallback&amp;quot;; font-weight: normal; font-size: 14px; line-height: 19px;&quot;&gt;&lt;div&gt;&lt;span style=&quot;color: #d4d4d4&quot;&gt;T6&lt;/span&gt;&lt;/div&gt;&lt;/div&gt;" style="text;whiteSpace=wrap;html=1;" parent="1" vertex="1">
                    <mxGeometry x="10" y="325" width="40" height="30" as="geometry"/>
                </mxCell>
                <mxCell id="109" value="&lt;div style=&quot;color: rgb(212 , 212 , 212) ; background-color: rgb(0 , 0 , 0) ; font-family: &amp;#34;droid sans mono&amp;#34; , monospace , monospace , &amp;#34;droid sans fallback&amp;#34; ; font-weight: normal ; font-size: 14px ; line-height: 19px&quot;&gt;&lt;div&gt;&lt;span style=&quot;color: #d4d4d4&quot;&gt;ENCENDER_CPU_2,&amp;nbsp;&lt;/span&gt;T12, APAGAR_CPU_2&lt;/div&gt;&lt;/div&gt;" style="text;whiteSpace=wrap;html=1;" parent="1" vertex="1">
                    <mxGeometry x="-226" y="370" width="480" height="30" as="geometry"/>
                </mxCell>
                <mxCell id="110" value="HA" style="shape=tape;whiteSpace=wrap;html=1;" parent="1" vertex="1">
                    <mxGeometry x="50" y="410" width="50" height="40" as="geometry"/>
                </mxCell>
                <mxCell id="112" value="" style="endArrow=classic;html=1;exitX=1;exitY=0.5;exitDx=0;exitDy=0;exitPerimeter=0;entryX=0.953;entryY=0.874;entryDx=0;entryDy=0;entryPerimeter=0;" parent="1" source="110" target="107" edge="1">
                    <mxGeometry width="50" height="50" relative="1" as="geometry">
                        <mxPoint x="110" y="399.9999999999999" as="sourcePoint"/>
                        <mxPoint x="240" y="299.9999999999999" as="targetPoint"/>
                    </mxGeometry>
                </mxCell>
                <mxCell id="113" value="&lt;div style=&quot;color: rgb(212 , 212 , 212) ; background-color: rgb(0 , 0 , 0) ; font-family: &amp;#34;droid sans mono&amp;#34; , monospace , monospace , &amp;#34;droid sans fallback&amp;#34; ; font-weight: normal ; font-size: 14px ; line-height: 19px&quot;&gt;&lt;div&gt;&lt;span style=&quot;color: #d4d4d4&quot;&gt;T13&lt;br&gt;&lt;/span&gt;&lt;/div&gt;&lt;/div&gt;" style="text;whiteSpace=wrap;html=1;" parent="1" vertex="1">
                    <mxGeometry y="410" width="40" height="30" as="geometry"/>
                </mxCell>
                <mxCell id="114" value="&lt;meta charset=&quot;utf-8&quot;&gt;&lt;div style=&quot;color: rgb(212, 212, 212); background-color: rgb(0, 0, 0); font-family: &amp;quot;droid sans mono&amp;quot;, monospace, monospace, &amp;quot;droid sans fallback&amp;quot;; font-weight: normal; font-size: 14px; line-height: 19px;&quot;&gt;&lt;div&gt;&lt;span style=&quot;color: #d4d4d4&quot;&gt;GENERAR_TAREA&lt;/span&gt;&lt;/div&gt;&lt;/div&gt;" style="text;whiteSpace=wrap;html=1;" parent="1" vertex="1">
                    <mxGeometry x="-80" y="470" width="130" height="30" as="geometry"/>
                </mxCell>
                <mxCell id="125" value="" style="rounded=1;whiteSpace=wrap;html=1;strokeColor=#FF0000;strokeWidth=2;fillColor=none;" parent="1" vertex="1">
                    <mxGeometry x="-950" y="242.5" width="150" height="57.5" as="geometry"/>
                </mxCell>
                <mxCell id="135" value="" style="rounded=1;whiteSpace=wrap;html=1;strokeColor=#FF0000;strokeWidth=2;fillColor=none;" parent="1" vertex="1">
                    <mxGeometry x="-830" y="310" width="540" height="90" as="geometry"/>
                </mxCell>
                <mxCell id="136" value="" style="rounded=1;whiteSpace=wrap;html=1;strokeColor=#FF0000;strokeWidth=2;fillColor=none;" parent="1" vertex="1">
                    <mxGeometry x="-810" y="180" width="540" height="90" as="geometry"/>
                </mxCell>
                <mxCell id="137" value="" style="rounded=1;whiteSpace=wrap;html=1;strokeColor=#FF0000;strokeWidth=2;fillColor=none;" parent="1" vertex="1">
                    <mxGeometry x="-520" y="460" width="240" height="70" as="geometry"/>
                </mxCell>
                <mxCell id="138" value="" style="rounded=1;whiteSpace=wrap;html=1;strokeColor=#FF0000;strokeWidth=2;fillColor=none;" parent="1" vertex="1">
                    <mxGeometry x="-520" y="30" width="240" height="70" as="geometry"/>
                </mxCell>
                <mxCell id="139" value="" style="rounded=1;whiteSpace=wrap;html=1;strokeWidth=2;fillColor=none;strokeColor=#FF8000;" parent="1" vertex="1">
                    <mxGeometry x="-820" y="46.25" width="60" height="63.75" as="geometry"/>
                </mxCell>
                <mxCell id="140" value="" style="rounded=1;whiteSpace=wrap;html=1;strokeWidth=2;fillColor=none;strokeColor=#FF8000;" parent="1" vertex="1">
                    <mxGeometry x="-580" y="126.25" width="60" height="63.75" as="geometry"/>
                </mxCell>
                <mxCell id="141" value="" style="rounded=1;whiteSpace=wrap;html=1;strokeWidth=2;fillColor=none;strokeColor=#FF8000;" parent="1" vertex="1">
                    <mxGeometry x="-580" y="406.25" width="60" height="63.75" as="geometry"/>
                </mxCell>
                <mxCell id="142" value="" style="rounded=1;whiteSpace=wrap;html=1;strokeWidth=2;fillColor=none;strokeColor=#FF8000;" parent="1" vertex="1">
                    <mxGeometry x="-800" y="460" width="60" height="63.75" as="geometry"/>
                </mxCell>
                <mxCell id="143" value="" style="whiteSpace=wrap;html=1;strokeWidth=2;strokeColor=none;" parent="1" vertex="1">
                    <mxGeometry x="-953" y="5" width="32" height="234" as="geometry"/>
                </mxCell>
                <mxCell id="144" value="" style="whiteSpace=wrap;html=1;strokeWidth=2;strokeColor=none;" parent="1" vertex="1">
                    <mxGeometry x="-950" y="302" width="32" height="253" as="geometry"/>
                </mxCell>
                <mxCell id="168" value="" style="group" vertex="1" connectable="0" parent="1">
                    <mxGeometry x="-836" y="691" width="688.5" height="288" as="geometry"/>
                </mxCell>
                <mxCell id="145" value="" style="endArrow=none;html=1;fillColor=#1ba1e2;strokeColor=#006EAF;strokeWidth=3;" parent="168" edge="1">
                    <mxGeometry width="50" height="50" relative="1" as="geometry">
                        <mxPoint x="34.5" y="201" as="sourcePoint"/>
                        <mxPoint x="534.5" y="201" as="targetPoint"/>
                    </mxGeometry>
                </mxCell>
                <mxCell id="146" value="" style="endArrow=none;html=1;fillColor=#1ba1e2;strokeColor=#006EAF;strokeWidth=3;" parent="168" edge="1">
                    <mxGeometry width="50" height="50" relative="1" as="geometry">
                        <mxPoint x="530.5" y="125" as="sourcePoint"/>
                        <mxPoint x="677.5" y="125" as="targetPoint"/>
                    </mxGeometry>
                </mxCell>
                <mxCell id="149" value="" style="endArrow=none;html=1;fillColor=#1ba1e2;strokeColor=#006EAF;strokeWidth=3;" parent="168" edge="1">
                    <mxGeometry width="50" height="50" relative="1" as="geometry">
                        <mxPoint x="532.5" y="198" as="sourcePoint"/>
                        <mxPoint x="532.5" y="123" as="targetPoint"/>
                    </mxGeometry>
                </mxCell>
                <mxCell id="151" value="∞" style="text;whiteSpace=wrap;html=1;fontSize=28;" parent="168" vertex="1">
                    <mxGeometry x="669.5" y="174" width="19" height="28" as="geometry"/>
                </mxCell>
                <mxCell id="152" value="&lt;meta charset=&quot;utf-8&quot;&gt;&lt;div style=&quot;color: rgb(212, 212, 212); background-color: rgb(0, 0, 0); font-family: &amp;quot;droid sans mono&amp;quot;, monospace, monospace, &amp;quot;droid sans fallback&amp;quot;; font-weight: normal; font-size: 14px; line-height: 19px;&quot;&gt;&lt;div&gt;&lt;span style=&quot;color: #d4d4d4&quot;&gt;timeStamp[transicion]&lt;/span&gt;&lt;/div&gt;&lt;/div&gt;" style="text;whiteSpace=wrap;html=1;" parent="168" vertex="1">
                    <mxGeometry y="70" width="197" height="33" as="geometry"/>
                </mxCell>
                <mxCell id="153" value="" style="endArrow=classic;html=1;" parent="168" edge="1">
                    <mxGeometry width="50" height="50" relative="1" as="geometry">
                        <mxPoint x="75.5" y="103" as="sourcePoint"/>
                        <mxPoint x="75.5" y="167" as="targetPoint"/>
                    </mxGeometry>
                </mxCell>
                <mxCell id="155" value="&lt;meta charset=&quot;utf-8&quot;&gt;&lt;div style=&quot;color: rgb(212, 212, 212); background-color: rgb(0, 0, 0); font-family: &amp;quot;droid sans mono&amp;quot;, monospace, monospace, &amp;quot;droid sans fallback&amp;quot;; font-weight: normal; font-size: 14px; line-height: 19px;&quot;&gt;&lt;div&gt;&lt;span style=&quot;color: #d4d4d4&quot;&gt;diferencia&lt;/span&gt;&lt;/div&gt;&lt;/div&gt;" style="text;whiteSpace=wrap;html=1;" parent="168" vertex="1">
                    <mxGeometry x="159.5" y="15" width="109" height="33" as="geometry"/>
                </mxCell>
                <mxCell id="156" value="&lt;meta charset=&quot;utf-8&quot;&gt;&lt;div style=&quot;color: rgb(212, 212, 212); background-color: rgb(0, 0, 0); font-family: &amp;quot;droid sans mono&amp;quot;, monospace, monospace, &amp;quot;droid sans fallback&amp;quot;; font-weight: normal; font-size: 14px; line-height: 19px;&quot;&gt;&lt;div&gt;&lt;span style=&quot;color: #d4d4d4&quot;&gt;System.&lt;/span&gt;&lt;span style=&quot;color: #a6e22e&quot;&gt;nanoTime&lt;/span&gt;&lt;span style=&quot;color: #d4d4d4&quot;&gt;()&lt;/span&gt;&lt;/div&gt;&lt;/div&gt;" style="text;whiteSpace=wrap;html=1;" parent="168" vertex="1">
                    <mxGeometry x="247" y="67" width="163" height="33" as="geometry"/>
                </mxCell>
                <mxCell id="158" value="&lt;meta charset=&quot;utf-8&quot;&gt;&lt;div style=&quot;color: rgb(212, 212, 212); background-color: rgb(0, 0, 0); font-family: &amp;quot;droid sans mono&amp;quot;, monospace, monospace, &amp;quot;droid sans fallback&amp;quot;; font-weight: normal; font-size: 14px; line-height: 19px;&quot;&gt;&lt;div&gt;&lt;span style=&quot;color: #d4d4d4&quot;&gt;intervalos[transicion][&lt;/span&gt;&lt;span style=&quot;color: #ae81ff&quot;&gt;0&lt;/span&gt;&lt;span style=&quot;color: #d4d4d4&quot;&gt;]&lt;/span&gt;&lt;/div&gt;&lt;/div&gt;" style="text;whiteSpace=wrap;html=1;" parent="168" vertex="1">
                    <mxGeometry x="207.5" y="244" width="231" height="33" as="geometry"/>
                </mxCell>
                <mxCell id="160" value="" style="endArrow=classic;html=1;" parent="168" edge="1">
                    <mxGeometry width="50" height="50" relative="1" as="geometry">
                        <mxPoint x="325.5" y="91" as="sourcePoint"/>
                        <mxPoint x="325.5" y="155" as="targetPoint"/>
                    </mxGeometry>
                </mxCell>
                <mxCell id="161" value="" style="endArrow=classic;startArrow=classic;html=1;" parent="168" edge="1">
                    <mxGeometry width="50" height="50" relative="1" as="geometry">
                        <mxPoint x="78.5" y="236" as="sourcePoint"/>
                        <mxPoint x="536.5" y="236" as="targetPoint"/>
                    </mxGeometry>
                </mxCell>
                <mxCell id="162" value="30ms" style="text;html=1;strokeColor=none;fillColor=none;align=center;verticalAlign=middle;whiteSpace=wrap;rounded=0;" parent="168" vertex="1">
                    <mxGeometry x="288.5" y="268" width="40" height="20" as="geometry"/>
                </mxCell>
                <mxCell id="163" value="" style="endArrow=classic;startArrow=classic;html=1;" parent="168" edge="1">
                    <mxGeometry width="50" height="50" relative="1" as="geometry">
                        <mxPoint x="80.5" y="51" as="sourcePoint"/>
                        <mxPoint x="327.5" y="51" as="targetPoint"/>
                    </mxGeometry>
                </mxCell>
                <mxCell id="164" value="" style="endArrow=classic;startArrow=classic;html=1;" parent="168" edge="1">
                    <mxGeometry width="50" height="50" relative="1" as="geometry">
                        <mxPoint x="328.5" y="51" as="sourcePoint"/>
                        <mxPoint x="533.5" y="51" as="targetPoint"/>
                    </mxGeometry>
                </mxCell>
                <mxCell id="165" value="&lt;meta charset=&quot;utf-8&quot;&gt;&lt;div style=&quot;color: rgb(212, 212, 212); background-color: rgb(0, 0, 0); font-family: &amp;quot;droid sans mono&amp;quot;, monospace, monospace, &amp;quot;droid sans fallback&amp;quot;; font-weight: normal; font-size: 14px; line-height: 19px;&quot;&gt;&lt;div&gt;&lt;span style=&quot;color: #d4d4d4&quot;&gt;sleepAmount[transicion]&lt;/span&gt;&lt;/div&gt;&lt;/div&gt;" style="text;whiteSpace=wrap;html=1;" parent="168" vertex="1">
                    <mxGeometry x="335.5" width="203" height="33" as="geometry"/>
                </mxCell>
            </root>
        </mxGraphModel>
    </diagram>
</mxfile>